<?xml version="1.0" encoding="UTF-8"?>
<svg id="Layer_1" xmlns="http://www.w3.org/2000/svg" version="1.1" viewBox="0 0 85 105">
  <!-- Generator: Adobe Illustrator 29.3.1, SVG Export Plug-In . SVG Version: 2.1.0 Build 151)  -->
  <defs>
    <style>
      .st0 {
        fill: #ffb6d8;
      }

      .st1 {
        fill: #fb9fd0;
      }

      .st2 {
        fill: #e698ab;
      }

      .st3 {
        fill: #fda2d6;
      }

      .st4 {
        fill: #f1a3b9;
      }

      .st5 {
        fill: #fe8dd6;
      }

      .st6 {
        fill: #d87292;
      }

      .st7 {
        fill: #d77292;
      }

      .st8 {
        fill: #fea2d6;
      }

      .st9 {
        fill: #f89dcc;
      }

      .st10 {
        fill: #dd7a97;
      }

      .st11 {
        fill: #fd9ed6;
      }

      .st12 {
        fill: #f2a4ba;
      }

      .st13 {
        fill: #fe6dc7;
      }

      .st14 {
        fill: #d77091;
      }

      .st15 {
        fill: #f3a1c2;
      }

      .st16 {
        fill: #fca2d3;
      }

      .st17 {
        fill: #d46f8f;
      }

      .st18 {
        fill: #252330;
      }

      .st19 {
        fill: #fe94d7;
      }

      .st20 {
        fill: #fe96d7;
      }

      .st21 {
        fill: #ff6dc7;
      }

      .st22 {
        fill: #d67090;
      }

      .st23 {
        fill: #fe95d7;
      }

      .st24 {
        fill: #d36c8d;
      }

      .st25 {
        fill: #d36b8d;
      }

      .st26 {
        fill: #da7a97;
      }

      .st27 {
        fill: #eb6ead;
      }

      .st28 {
        fill: #e79aac;
      }

      .st29 {
        fill: #e691a9;
      }

      .st30 {
        fill: #f15a6a;
      }

      .st31 {
        fill: #fdb4d5;
      }

      .st32 {
        fill: #d97493;
      }

      .st33 {
        fill: #dc7896;
      }

      .st34 {
        fill: #fda1d5;
      }

      .st35 {
        fill: #f66cbb;
      }

      .st36 {
        fill: #fda1d6;
      }

      .st37 {
        fill: #fe97d7;
      }

      .st38 {
        fill: #e895ac;
      }

      .st39 {
        fill: #f1a3b8;
      }

      .st40 {
        fill: #fe6cc6;
      }

      .st41 {
        fill: #fe8dd7;
      }

      .st42 {
        fill: #f1a4b9;
      }

      .st43 {
        fill: #fe9dd7;
      }

      .st44 {
        fill: #d46d8e;
      }

      .st45 {
        fill: #efa2b7;
      }

      .st46 {
        fill: #f2a5ba;
      }

      .st47 {
        fill: #e79bad;
      }

      .st48 {
        fill: #fea2d7;
      }

      .st49 {
        fill: #fb9dd1;
      }

      .st50 {
        fill: #fd8dd6;
      }

      .st51 {
        fill: #fe9cd7;
      }

      .st52 {
        fill: #fea3d7;
      }

      .st53 {
        fill: #feb4d7;
      }

      .st54 {
        fill: #fa9bce;
      }

      .st55 {
        fill: #da7594;
      }

      .st56 {
        fill: #f3a2c1;
      }

      .st57 {
        fill: #db7795;
      }

      .st58 {
        fill: #fe5450;
      }

      .st59 {
        fill: #fe9ad7;
      }

      .st60 {
        fill: #f8a2c9;
      }

      .st61 {
        fill: #fe91d7;
      }

      .st62 {
        fill: #fe99d7;
      }

      .st63 {
        fill: #e089a1;
      }

      .st64 {
        fill: #fd9fd6;
      }

      .st65 {
        fill: #fe9fd7;
      }

      .st66 {
        fill: #fe6dc6;
      }

      .st67 {
        fill: #fea1d7;
      }

      .st68 {
        fill: #fc545c;
      }

      .st69 {
        fill: #feb5d7;
      }

      .st70 {
        fill: #f95963;
      }

      .st71 {
        fill: #fb7bc4;
      }

      .st72 {
        fill: #fe9bd7;
      }
    </style>
  </defs>
  <path class="st50" d="M53.3,8.1h.2s.2.3.2.3l.3.7.6,2.2.6,2.6.5,2.4.8,3.5.6,2.5.8,2.7.8,2.6.8,2.8.6,2.3.6,2.5.6,2.6.5,2.6.3,1.8.2,1.5v.7c0,0,0,2.5,0,2.5l-.2,1.1-.3,1-.6,1.5-.8,1.7-1,2-.9,1.8-.6,1.3-.6,1.6-.5,1.6-.4,1.3v.4c-.1,0,.3.4.3.4l.7.4.7.5.5.4.4.3,1.8,1.6.4.4.5.5.4.4.6.6.9.9.4.5.7.8.7.9.9,1.3.8,1.1.7,1,.7,1.2.2.2h.5c0,0,.3,0,.3,0h.4l.8.2.8.4.7.5.4.3.5.7.4.9.2.7v.3c0,0,0,.5,0,.5l-.2.7-.4.8-.4.6-.6.5-.2.4.3.3h0v8.5l-.2.8-.3.8-.6,1.1-.6.9-.6.7-.5.5-.4.4-.4.3-.7.5-.9.5-.9.4-.7.2h-1c0,.1-2,.2-2,.2l-13.8.3h-6.1c0,0-.8-.4-.8-.4l-.8-.4-.8-.4-.6-.4-.5-.4-.4-.3-.6-.5-.5-.5-.5-.7-.5-.7-.4-.7h0s-.4,0-.4,0l-.7.3-.8.2h-.7c0,0-.8,0-.8,0l-.9-.2-.6-.2-.7-.5-.4-.4-.5-.7-.3-.6-.3-.7v-.4c-.1,0-.1-1-.1-1l.2-.7.4-.7.4-.5.5-.5.8-.5.7-.3h.5c0-.1.4-.2.4-.2h.9l1.4.2-.2-2v-1c0,0,0-3.9,0-3.9v-1.8c.1,0,.4-2.3.4-2.3l.3-1.7.6-2.5.3-.9v-.3c0,0-.4-.4-.4-.4l-.7-.6-.5-.4-.6-.4-.7-.5-.9-.6-1-.6-1.3-.7-1.2-.6-1.4-.7-1.4-.7-1.3-.6-1.2-.6-1.1-.6-.9-.6-.5-.4-.7-.6-.6-.5-.5-.5-.5-.6-.5-.7-.8-1.1-.8-1.2-.8-1.2-.6-1-.9-1.5-.6-1.1-.5-.9-.6-1.1-.8-1.5-.8-1.5-.6-1.2-1.7-3.6-.4-.8-.6-1.2-.6-1.1-.8-1.6-.6-1.1-.5-.9-.6-1.1-.6-1-.6-1-.5-.9-1.5-2.6-1.3-2.6-.2-.5v-.2h.3s.6.3.6.3l.5.3.8.6.9.6.5.4.6.4.8.6.7.6.8.6.5.4.6.4.5.4.6.4.7.6.6.4.8.6.7.5.9.7.7.5.9.6.9.6,1,.7.9.6.8.5,1,.7.9.6.7.5.9.7.9.6.7.5.6.5.6.4.7.5,1.4,1.1.5.4.4.3.6.5,2.6,2.4.4.4.5.5.6.7.6.7.6.8.5.8.4.7.7,1.3.8,1.8.9,2.3.8,2,.7,1.8.6,1.3.4.7.3.4.3.4.3.2h.3c0-.1.5-.7.5-.7l.5-.5.6-.6.6-.6.7-.5.8-.5,1.1-.5,1.3-.4h.7c0-.1,1.9-.1,1.9-.1l1.6.2-.4-2-.5-1.6-.7-1.9-.6-1.7-.7-2-.5-1.6-.4-1.3-.3-1.3-.2-1.3v-.6c0,0,0-2.4,0-2.4l.2-2,.2-1.4.5-2.6.7-3,.7-2.7.7-2.5.9-2.9.7-2.6.6-2.4.6-2.6.7-3.2.5-2.2.6-2.6.2-.9.3-.4h0Z"/>
  <path class="st13" d="M1.2,25.5h.3s.6.3.6.3l.5.3.8.6.9.6.5.4.6.4.8.6.7.6.8.6.5.4.6.4.5.4.6.4.7.6.6.4.8.6.7.5.9.7.7.5.9.6.9.6,1,.7.9.6.8.5,1,.7.9.6.7.5.9.7.9.6.7.5.6.5.6.4.7.5,1.4,1.1.5.4.4.3.6.5,2.6,2.4.4.4.5.5.6.7.6.7.6.8.5.8.4.7.7,1.3.8,1.8.9,2.3.8,2,.7,1.8.6,1.3.4.7.3.4.3.4.2.3v.2c0,0-.3.6-.3.6l-.4.6-.2.3-.3.2h-.3s-.3-.4-.3-.4h-.1c0,0,0,.5,0,.5l-.3.3-.2.2v.3h.5c0,0-.3.4-.3.4h-.2c0,.1.1.4.1.4h.1c0,.1,0,.5,0,.5l-.2.4-.2.8-.4.8h-.1s-.6-.5-.6-.5l-.4-.3-.7-.5-.5-.4-.7-.5-.9-.6-1-.6-1.3-.7-1.2-.6-1.4-.7-1.4-.7-1.3-.6-1.2-.6-1.1-.6-.9-.6-.5-.4-.7-.6-.6-.5-.5-.5-.5-.6-.5-.7-.8-1.1-.8-1.2-.8-1.2-.6-1-.9-1.5-.6-1.1-.5-.9-.6-1.1-.8-1.5-.8-1.5-.6-1.2-1.7-3.6-.4-.8-.6-1.2-.6-1.1-.8-1.6-.6-1.1-.5-.9-.6-1.1-.6-1-.6-1-.5-.9-1.5-2.6-1.3-2.6-.2-.5v-.2Z"/>
  <path class="st13" d="M53.3,8.1h.2s.2.3.2.3l.3.7.6,2.2.6,2.6.5,2.4.8,3.5.6,2.5.8,2.7.8,2.6.8,2.8.6,2.3.6,2.5.6,2.6.5,2.6.3,1.8.2,1.5v.7c0,0,0,2.5,0,2.5l-.2,1.1-.3,1-.6,1.5-.8,1.7-1,2-.9,1.8-.6,1.3-.6,1.6-.5,1.6-.4,1.3v.4c-.1,0,0,0,0,0h0c0,.1-.3.2-.3.2l-.4-.2-.5-.2-.8-.4-.5-.5h.2c0-.1-.1-.3-.1-.3h-.3c0-.1-.3-.2-.3-.2l-.2-.2h-.4v-.2h-.7c0,.1-.3.2-.3.2h-.2c0,0-.2.2-.2.2l-.8-.2-1-.2h-.4c0-.1.2-.2.2-.2l-.3-1.6-.3-1.2-.6-1.6-1.4-3.7-.8-2.2-.6-1.9-.3-1.3-.2-1.3v-.6c0,0,0-2.4,0-2.4l.2-2,.2-1.4.5-2.6.7-3,.7-2.7.7-2.5.9-2.9.7-2.6.6-2.4.6-2.6.7-3.2.5-2.2.6-2.6.2-.9.3-.4h0Z"/>
  <path class="st42" d="M68.4,75.4h.6c0,0,.3,0,.3,0h.4l.8.2.8.4.7.5.4.3.5.7.4.9.2.7v.3c0,0,0,.5,0,.5l-.2.7-.4.8-.4.6-.6.5-.2.4.3.3h0v8.5l-.2.8-.3.8-.6,1.1-.6.9-.6.7-.5.5-.4.4-.4.3-.7.5-.9.5-.9.4-.7.2h-1c0,.1-2,.2-2,.2l-13.8.3h-6.1c0,0-.8-.4-.8-.4l-.8-.4-.8-.4-.6-.4-.5-.4-.4-.3-.6-.5-.5-.5-.5-.7-.5-.7-.4-.7h0s-.4,0-.4,0l-.7.3-.8.2h-.7c0,0-.8,0-.8,0l-.9-.2-.6-.2-.7-.5-.4-.4-.5-.7-.3-.6-.3-.7v-.4c-.1,0-.1-1-.1-1l.2-.7.4-.7.4-.5.5-.5.8-.5.7-.3h.5c0-.1.4-.2.4-.2h.9l1.4.2v-.3l.5-.3.7-.5.5-.4.5-.3,1-.5,1.1-.3h1.3c0-.1,1.6-.1,1.6-.1l1.2.2.8.2.3.2v.2c0,0-.3,0-.3,0h-.5s-.9-.2-.9-.2h-.5s-1.6,0-1.6,0h-1c0,.1-.5.3-.5.3h-.5c0,.1-.8.5-.8.5l-.6.3-.9.6-.6.5h-.1c0,.1,0,.4,0,.4h.3s.7.4.7.4l.3.2v.2h.2l.3.3.3.5h.1s.2.2.2.2h.2v.5l.2.6v.6h0c0,0,0,.7,0,.7l.2.3h0c0,0,.1,0,.1,0l.2.3.2.2.3.4v.2c.1,0,.2,0,.2,0l.3.3h.3v.2h.2s.2.3.2.3l1,.6.7.5.5.3h.2c0,.1.7.5.7.5l1,.3,1,.3,1.3.2h1.2c0,0,.5-.3.5-.3l.6-.4.5-.4.5-.4.4-.3.5-.5.4-.5.4-.5.3-.5.3-.5.3-.5.4-.7.7-1,.4-.5.6-.6h.3c0,0,.1-.2.1-.2h.1s0,0,0,0h.5c0-.1,0,0,0,0h.3s.6,0,.6,0h.2s1.5,0,1.5,0h.2s.4,0,.4,0h.5c0,.1,1.2.6,1.2.6l.7.2.8.3.9.2.7.2,1,.2h1.2c0,0,.6,0,.6,0l.5-.2.5-.4.4-.4.6-.7.5-.7.4-.7.6-1.3.2-.6.3-.2h.1c0-.1.1-.1.1-.1v-.2c.1,0,.4-.4.4-.4v-.3c0,0-.4,0-.4,0h-.3c0,0,0-.1,0-.1h-.1c0,0-.3.3-.3.3h-.8s-.3,0-.3,0h-.7s-.8,0-.8,0h-.1s-.7,0-.7,0h0c0,0-.4.2-.4.2l-.4.4-.2.2h-.1v.2h-.2c0,0-.1,0-.1,0v.2c-.1,0-.3.1-.3.1h-.1c0,0-.4.3-.4.3h-.1c0,0-.3.3-.3.3l-.8.4-.8.3h-.7s-.2,0-.2,0h-1.5s0-.2,0-.2h.5c0-.1,1.1-.4,1.1-.4l.8-.3h-.4c0,.1-.7.3-.7.3h-.2s-.9,0-.9,0l-.7-.3h0c0,0-.2-.1-.2-.1l-.2-.3h0c0,0-.2-.1-.2-.1v-.2c-.1,0-.4-.2-.4-.2v-.2h-.2s-.1-.2-.1-.2v-.5c0,0-.4-.2-.4-.2h0v-.4h-.2s-.2-.5-.2-.5v-.2c0,0,0-.1,0-.1v-.7h0c0-.1,0-.3,0-.3h-.1v-.3h-.2v-.3h0c0,0-.3-.1-.3-.1v-.4c.1,0,.2,0,.2,0h.1v-.2c.1,0,.6-.4.6-.4l.6-.4.7-.6.9-.6,1-.6,1.3-.6,2.4-.7.8-.3h.2s.3.2.3.2v.2c0,0-.3.2-.3.2h-.4c0,.1,0,.2,0,.2h-.3s-.4,0-.4,0l-1.4.5-1.5.6-1.2.6-.5.3-.6.4h-.1c0,.1.9,0,.9,0l1.3-.3,1.3-.2h1.1c0,0,1.5-.1,1.5-.1h.3s-.2-.2-.2-.2v-.6c0,0,0-.6,0-.6v-.2h.2c0,0,.5-.2.5-.2l.3-.2.8-.3.5-.2.7-.2.6-.3h.2Z"/>
  <path class="st33" d="M40.7,83.8h1.6l1.2.2.8.2.3.2v.2c0,0-.3,0-.3,0h-.5s-.9-.2-.9-.2h-.5s-1.6,0-1.6,0h-1c0,.1-.5.3-.5.3h-.5c0,.1-.8.5-.8.5l-.6.3-.9.6-.6.5h-.1c0,.1,0,.4,0,.4h.3s.7.4.7.4l.3.2v.2h.2l.3.3.3.5.2.3.2.6v.5c.1,0,0,.7,0,.7h0v.7c.1,0,.1.1.1.1h.2s0,.3,0,.3h.1l.5.7h0c0,0,.1,0,.1,0l.4.5.2.2h0c0,.1.3.2.3.2l.4.4v.2h.2c0,0,.2.1.2.1h0c0,0,.2.2.2.2h0c0,.1.1.1.1.1v.2h.2c0,0,.3.2.3.2l.4.3h.3v.2h.4c0,0,.4.4.4.4h.5c0,.1.2.2.2.2h.3c0,0,.6.3.6.3l.7.2h.6c0,0,.6.2.6.2h.6c0,0,1.1.2,1.1.2h1s3.8,0,3.8,0h.3s.8,0,.8,0h1s2.1,0,2.1,0h1.7s2.8,0,2.8,0h.5s2.6-.1,2.6-.1h.9s.5,0,.5,0h.8s.8-.1.8-.1h1.1c0-.1.3-.1.3-.1l-.3.3-.7.5-.9.5-.9.4-.7.2h-1c0,.1-2,.2-2,.2l-13.8.3h-6.1c0,0-.8-.4-.8-.4l-.8-.4-.8-.4-.6-.4-.5-.4-.4-.3-.6-.5-.5-.5-.5-.7-.5-.7-.4-.7h0s-.4,0-.4,0l-.7.3-.8.2h-.7c0,0-.8,0-.8,0l-.9-.2-.6-.2-.7-.5-.4-.4-.5-.7-.3-.6-.3-.7v-.4c-.1,0-.1-1-.1-1l.2-.7.4-.7.4-.5.5-.5.8-.5.7-.3h.5c0-.1.4-.2.4-.2h.9l1.4.2v-.3l.5-.3.7-.5.5-.4.5-.3,1-.5,1.1-.3h1.3Z"/>
  <path class="st42" d="M42.3,80.4h.3s.8.4.8.4h.3c0,.1.2.3.2.3h.3c0,.1.2.4.2.4h.4c0,.1.4.4.4.4l.6.4.6.5h0c0,0,.1,0,.1,0h0c0,0,.3.2.3.2v.2h.2c0,0,.3.2.3.2l.5.4.3.2.4.5.2.3.5.5.2.3.3.4.3.8.3.4.4.3h0c0,0,.1,0,.1,0h0c0,.1.6.3.6.3h.2s1,0,1,0l.6-.2.8-.5.5-.6.5-.9.3-.6h.2c0-.1.4,0,.4,0v.3c0,0-.2.8-.2.8l-.4.7-.5.7-.4.3-.3.2h-.1c0,0-.4.1-.4.1h0c0,0-.8.4-.8.4h0s-.9.1-.9.1h-.3s-.2.1-.2.1l-.2.5-.4.7-.5.5-.6.4h-.7c0,.1-2.4.1-2.4.1h-.3s-.2-.1-.2-.1h-.4l-.9-.2-.5-.2-.9-.4-.9-.6-.5-.4-.3-.2-.4-.5-.5-.7-.3-.7v-.7c-.1,0-.2-.1-.2-.1v-.7c0,0,.1-.3.1-.3h.1v-.4h-.2s-.4,0-.4,0h-.2c0,0-.4.2-.4.2h-.3s.3-.2.3-.2l.7-.2h.4c0,0,.7-.2.7-.2h2.6c0,.1.6.3.6.3h.5s0-.2,0-.2l-.3-.2-.8-.2-1.2-.2h-2.8c0,.1-.6.3-.6.3l-.7.2-.9.4-.5.3-.6.4-.7.6h-.3c0,.1,0-.1,0-.1l.4-.2.8-.6.6-.4.4-.2,1.1-.5.9-.3h.3c0,0,.1,0,.1,0l.2-.5.2-.4.5-1v-.2c0,0,.3-.4.3-.4l.3-.6h.2c0,0,.2-.3.2-.3h.4s0,0,0,0h.5Z"/>
  <path class="st58" d="M68.4,75.4h.6c0,0,.3,0,.3,0h.4l.8.2.8.4.7.5.4.3.5.7.4.9.2.7v.3c0,0,0,.5,0,.5l-.2.7-.4.8-.4.6-.6.5-.3.4h-.4c0,0-.4.3-.4.3l-1.1.3-.4.2h-.6s-.8-.2-.8-.2l-.8-.2h-.4c0-.1-.3-.3-.3-.3l-.5-.2-.5-.3-.4-.4-.6-1-.2-.5v-.2c-.1,0-.1-1-.1-1h0s-.5,0-.5,0l-2.2.2-1,.2-.8.2-.7.2-.9.2h-.4c0,.1-1,.4-1,.4h-.4c0-.1,0-.5,0-.5l.4-.4.5-.3.7-.6.9-.6,1-.6.8-.4.9-.4,2.4-.7.8-.3h.2s.3.2.3.2v.2c0,0-.3.2-.3.2h-.4c0,.1,0,.2,0,.2h-.3s-.4,0-.4,0l-1.4.5-1.5.6-1.2.6-.5.3-.6.4h-.1c0,.1.9,0,.9,0l1.3-.3,1.3-.2h1.1c0,0,1.5-.1,1.5-.1h.3s-.2-.2-.2-.2v-.6c0,0,0-.6,0-.6v-.2h.2c0,0,.5-.2.5-.2l.3-.2.8-.3.5-.2.7-.2.6-.3h.2Z"/>
  <path class="st58" d="M40.7,83.8h1.6l1.2.2.8.2.3.2v.2c0,0-.3,0-.3,0h-.5s-.9-.2-.9-.2h-.5s-1.6,0-1.6,0h-1c0,.1-.5.3-.5.3h-.5c0,.1-.8.5-.8.5l-.6.3-.9.6-.6.5-.2.4.4.2.3.2.4.2.5.6.2.2.3.5.2.5v.8c0,0,0,.5,0,.5v.4c-.1,0-.2.4-.2.4l-.3.6-.4.7-.6,1h-.2c0,0-.4,0-.4,0l-.7.3-.8.2h-.7c0,0-.8,0-.8,0l-.9-.2-.6-.2-.7-.5-.4-.4-.5-.7-.3-.6-.3-.7v-.4c-.1,0-.1-1-.1-1l.2-.7.4-.7.4-.5.5-.5.8-.5.7-.3h.5c0-.1.4-.2.4-.2h.9l1.4.2v-.3l.5-.3.7-.5.5-.4.5-.3,1-.5,1.1-.3h1.3Z"/>
  <path class="st46" d="M64,79.2h.6v1.1l.3.6.2.5.5.9h.2c0,0,.3.3.3.3l.4.2.5.2.4.2.7.2h1c0,.1.5.2.5.2h.4s-.3.3-.3.3l-.3.2h-.8s-.3,0-.3,0h-.7s-.8,0-.8,0h-.1s-.7,0-.7,0h0c0,0-.4.2-.4.2l-.4.4-.2.2h-.1v.2h-.2c0,0-.1,0-.1,0v.2c-.1,0-.3.1-.3.1h-.1c0,0-.4.3-.4.3h-.1c0,0-.3.3-.3.3l-.8.4-.8.3h-.7s-.2,0-.2,0h-1.5s0-.2,0-.2h.5c0-.1,1.1-.4,1.1-.4l.8-.3h-.4c0,.1-.7.3-.7.3h-.2s-.9,0-.9,0l-.7-.3h0c0,0-.2-.1-.2-.1l-.2-.3h0c0,0-.2-.1-.2-.1v-.2c-.1,0-.4-.2-.4-.2v-.2h-.2s-.1-.2-.1-.2v-.5c0,0-.4-.2-.4-.2h0v-.4h-.2s-.2-.5-.2-.5v-.2c0,0,0-.1,0-.1v-.7h0c0-.1,0-.3,0-.3h-.1v-.3h-.2v-.3h0c0,0-.3-.1-.3-.1v-.4c.1,0,.2,0,.2,0v.2c0,0,.5,0,.5,0l.6-.2h.6c0-.1.5-.3.5-.3l1.1-.2h.5c0-.1,1-.4,1-.4l1.6-.2h1Z"/>
  <path class="st3" d="M59.2,69.8h.3v.2c0,0-.3.8-.3.8l-.3.5-.3.7-.3.6-.4.9-.5,1.4-.6,1.9-.5,2v.5c-.1,0-.1.6-.1.6h0c0,0,.4,0,.4,0h.2s.1-.2.1-.2h.1c0,0,.4-.4.4-.4v-.2c-.1,0-.2,0-.2,0v-1.3c0,0,0-.4,0-.4v-.3c0,0,.1-.2.1-.2v-.2c.1,0,.2-.4.2-.4l.2-.3h.3c0,0,.1-.3.1-.3l.2-.4.5-.4h.2c0-.1.6-.4.6-.4h.3c0,0,.7-.2.7-.2l.7.2.5.3.4.2.2.2.8.6.4.4v.3c0,0-.1,0-.1,0h0c0,0-1.9.7-1.9.7l-1.3.6-1,.6-.8.6-.7.5-.6.4-.5.4h0c0,0-.1,0-.1,0l-.2.5h.3v.4h0c0,0,.1,0,.1,0v.2c.1,0,.2.1.2.1v.2c-.1,0,0,0,0,0v.7h.1c0,.1,0,.4,0,.4l.2.4h.1s.1.4.1.4h.3c0,.1,0,.2,0,.2v.5c0,0,.3.2.3.2v.3c.1,0,.3.2.3.2v.2c.1,0,.3.2.3.2h.1v.3h.2c0,.1.5.3.5.3h.2c0,0,.9,0,.9,0l.8-.2.6-.2h.1s-.5.3-.5.3l-.8.2h-.3s-1.5,0-1.5,0h-.5s-.2,0-.2,0h-.4c0,.1-.5.1-.5.1h-.4c0,0-.6-.4-.6-.4v-.2c-.1,0-.3,0-.3,0l-.4-.3-.2-.3v-.5c-.1,0-.3-.3-.3-.3v-.6c0,0-.1-1.7-.1-1.7v-1.2l.2-.7v-.8c0,0,0-.2,0-.2v-.3c.1,0,0-.5,0-.5h-.1c0,0-.3-.8-.3-.8v-.4c0,0,0-.4,0-.4l.2-.7.3-1.2.5-1.4.2-.5.3-.6.3-.7.3-.6.3-.5.2-.2v-.2c.1,0,.5-.1.5-.1h.3v.2c.1,0,0,.2,0,.2l-.3.6-.4.7-.3.7-.4.9h.1l.2-.4.3-.6.5-.9h.2c0-.1.1-.5.1-.5h0c0-.1.1-.1.1-.1v-.2c.1,0,.4-.3.4-.3l.2-.2.3-.4.3-.2Z"/>
  <path class="st48" d="M4.5,29.6h.3c0,0,.3.3.3.3h0c0,.1.1.1.1.1l.4.6.3.5.6.9.2.3.5.8.4.8.5.8.5.9.2.2.6,1,.4.7.4.7.6,1.1.4.7.2.4.4.7.3.6.4.9.2.5.2.3.4.8h0c0,.1.3.2.3.2v-.2c0,0,0-.4,0-.4v-.3l.2-.2h.4l.3.2.2.2.2.3.2.2.3.7.3.7.2.4.2.6.3.5v.3c.1,0,.4.5.4.5l.3.6.4.7.3.6.3.4.2.2.2.5.3.3.2.4h0c0,.1.1.1.1.1l.2.4.6,1.1.3.3.2.4.2.2h.1s.4.8.4.8l.3.4.2.3v.2c0,0,0,.4,0,.4h0c0,0-.6,0-.6,0l-.5-.6h0c0,0-.2-.2-.2-.2l-.3-.4h0c0,0-.1,0-.1,0l-.2-.4-.4-.5-.2-.3-.3-.5h0c0,0-.2-.2-.2-.2l-.2-.2-.4-.5-.2-.3h0c0,0-.7,0-.7,0h-.2s-.2-.2-.2-.2l-.4-.2-.2-.2v-.2c-.1,0-.6-.9-.6-.9l-.3-.6-.6-1.1-.2-.5h0c0-.1-.1-.1-.1-.1l-.2-.5-.2-.4-.3-.7-.3-.6-.3-.6-.2-.3v-.3c0,0-.2-.2-.2-.2l-.4-.9-.2-.5v-.2h-.2l-.3-.7h0s-.1-.5-.1-.5l-.4-.7-.5-1-.4-.7-.2-.5-.2-.3-.2-.4-.3-.6-.4-.7-.2-.5-.3-.4-.4-.7-.5-.7v-.3c-.1,0-.4-.4-.4-.4l-.4-.7-.2-.4h0c0-.1-.1-.1-.1-.1l-.2-.2-.2-.3-.2-.2-.2-.4-.4-.7-.3-.5-.2-.3v-.3c0,0,.1,0,.1,0Z"/>
  <path class="st3" d="M41,76.1h1.2c0,.1.3.3.3.3l.6.3.5.3.5.2h0c0,0,.2.1.2.1h.2v.2h.3c0,0,.6.5.6.5l.7.6.5.4.7.6.3.5.2.4v.2l-.2.2h-.2s0,.3,0,.3l.2.2.8.7h.2c0,0,.2.4.2.4l.4.6v.4c0,0-.1.1-.1.1h-.4s0,0,0,0l.3.5.3.2.6.6.3.4.3.8.2.5.2.3.3.6.7.3h-.1c0,0-.4,0-.4,0h-.5v-.2h-.1c0,0-.2-.2-.2-.2l-.4-.4-.2-.3-.3-.8-.3-.4-.3-.4-.4-.4-.2-.3-.3-.4h0c0,0-.2-.2-.2-.2l-.4-.4-.4-.2h0c0,0-.1,0-.1,0v-.2c-.1,0-.4,0-.4,0h0c0,0-.1,0-.1,0l-.3-.3-.4-.3-.5-.3-.5-.4h-.3c0,0-.2-.3-.2-.3l-.4-.2h0c0,0-.3-.2-.3-.2l-.5-.2h-.4c0-.1-.6,0-.6,0h-.2s-.3,0-.3,0h-.1c0,.1-.2.2-.2.2l-.3.6-.2.4-.2.5-.5.8-.3.7h-.1c0,0,.1-.9.1-.9l.3-1.2.2-.7.7-.6.5-.4.6-.3h.9s.6.4.6.4l.5.3.4.2.2.2h.2s.3.3.3.3l.5.3h.1s0,0,0,0h-.1c0,0-.1,0-.1,0l-.5-.4-.4-.3h-.3c0,0-.3-.4-.3-.4l-.6-.3h0c0-.1-.2-.2-.2-.2l-.3-.2-.4-.2h0c0,0-.2-.1-.2-.1h-.2c0-.1-.2-.2-.2-.2h0c0,0-.3-.1-.3-.1h-.3c0-.1-.2-.4-.2-.4h-.1v-.2h-.5c0-.1-.5-.3-.5-.3h-.7c0,0-.3-.2-.3-.2h-1.1s-.5,0-.5,0h-.1v-.5l.3-.2.9-.3h1.2c0,0,0,0,0,0h.3s.2.2.2.2h.4s0-.5,0-.5l.2-.2Z"/>
  <path class="st48" d="M69.4,83.8h.1v.2c0,0,.4,0,.4,0h.5c0,.1,0,.4,0,.4l-.4.5h-.1c0,.1-.1.1-.1.1v.2c-.1,0-.3.2-.3.2l-.3.7-.3.7-.3.6-.4.8-.6.8-.5.7-.8.7-.5.3h-.1s-.7,0-.7,0h-1.1c0,0-1.5-.5-1.5-.5l-.6-.2h-.5c0-.1-1.2-.6-1.2-.6l-.8-.3-.7-.3h-.4c0,0-.5,0-.5,0h-.2s-1.5,0-1.5,0h-.2s-1.1,0-1.1,0h-.4c0,.1-.3.2-.3.2h-.3c0,.1-.6.7-.6.7l-.5.7-1,1.6-.5.7-.6.9-.5.6-.6.7-.4.4-.5.4-.4.3-.8.4h-.4c0,.1-.8.2-.8.2h-.6s-1.1-.3-1.1-.3l-1.5-.5-.8-.4-.3-.2-.2-.2-.6-.3-.6-.4-.9-.5h-.2v-.2h-.2s-.7-.7-.7-.7l-.4-.5-.2-.3-.2-.2h0c0-.1-.1-.1-.1-.1l-.2-.4v-.7h.2v-.7c-.1,0-.3-.4-.3-.4v-.4l-.3-.3h-.1v-.4c-.1,0-.2-.2-.2-.2l-.4-.4v-.2l.4.3.4.4h0c0,0,.3,0,.3,0h0c0,0,.2,0,.2,0v.2h.2l.2.4.4.4.4.4h.3c0,.1.2.3.2.3h0c0,0,.1,0,.1,0l.3.3h0c0,0,.2.2.2.2l.2.2.4.3.7.5.3.2h0c0,0,.3.2.3.2h.4c0,.1.4.5.4.5l.5.3h0c0,0,.1,0,.1,0v.2c-.1,0-.4.2-.4.2h-.3c0,0-.8.2-.8.2h-.4c0,0-.2,0-.2,0h.2c0,.1.1.2.1.2h0c0,0,.2.2.2.2l.2.2.9.4.5.3.6.3.7.2.8.2h.3c0,0,1,.2,1,.2h1c0-.1.6-.4.6-.4l.6-.3.5-.2.6-.4h.2c0,0,.3-.6.3-.6l.3-.2.2-.2h.1s0-.2,0-.2l.4-.5.3-.5.5-.7.3-.6.5-.7.4-.4.2-.3h.2c0-.1.2-.4.2-.4v-.4c.1,0-.3,0-.3,0h0c0,0,.2,0,.2,0v-.2c0,0,.3-.1.3-.1h0c0,0,.3,0,.3,0h.1c0-.1.1-.2.1-.2h0s.5,0,.5,0h0c0-.1.5-.2.5-.2h.1s.5,0,.5,0h2.2c0,0,.3.2.3.2h.5c0,0,.8.5.8.5l1.3.5h.3c0,.1.9.4.9.4l1.3.5h.6c0,0,1.1.1,1.1.1h.6s.5-.2.5-.2l.4-.2h.3c0-.1.2-.4.2-.4l.3-.2.2-.2.3-.3.3-.5.2-.5.4-.7.6-1.4v-.3c.1,0,.2-1.1.2-1.1v-.2Z"/>
  <path class="st48" d="M10.7,34.3h.5l.8.2.6.2.4.2.6.2h.2v.2h.3c0,0,0,.2,0,.2h.3s.5.2.5.2h0c0,0,.5.3.5.3l.4.2h.2s.3.3.3.3l.6.4.6.5.3.2.4.3h0c0,0,.3.2.3.2h0c0,.1.2.2.2.2h0c0,0,.2.2.2.2l1.2,1.1h0c0,.1.1.1.1.1l.3.3.3.2h0c0,0,.3.2.3.2l.3.2.3.3.5.3.3.2.5.4.4.3h.1c0,.1.2.2.2.2l.5.3h0c0,0,.1,0,.1,0l.3.2.3.2.8.6h.2v.6l-.2.6.3.4.8.5h0c0,0,.3.2.3.2l.6.4.4.3h0c0,0,.2.2.2.2h.2v.2h.2c0,0,.3.4.3.4l.2.3v.4h-.1c0,0-.3,0-.3,0h-.2v-.2h-.3v-.2h-.3c0,0-.3-.3-.3-.3h-.3v-.2h-.3c0,0-.4-.4-.4-.4h0c0,0-.2-.1-.2-.1h0c0,0-.3-.2-.3-.2l-.5-.3-.8-.5-.6-.3-.4-.3-.4-.2-.4-.2-.2-.2h-.1c0-.1-.3-.2-.3-.2h-.2v-.2h-.2c0,0-.2-.2-.2-.2l-.6-.3h-.2c0-.1-.2-.2-.2-.2h0c0-.1-.2-.1-.2-.1h0c0,0-.3-.2-.3-.2h-.2v-.2h-.1c0,0-.1,0-.1,0h0c0,0-.2-.2-.2-.2h-.1c0-.1,0-.5,0-.5l.2-.2h.4v-.3h-.1l-.2-.4h0c0-.1-.2-.2-.2-.2h0c0-.1-.1-.1-.1-.1l-.2-.3h-.2v-.2h-.2c0,0-.7-.7-.7-.7l-.4-.3h0c0-.1-.1-.1-.1-.1h0c0,0-.2-.2-.2-.2h0c0,0-.2-.2-.2-.2l-.5-.3h0c0,0-.5-.4-.5-.4l-.5-.3h0c0,0-.2,0-.2,0l-.3-.2-.3-.2-.3-.2h-.3c0-.1-.3-.2-.3-.2h-.2c0-.1-.6-.4-.6-.4l-.5-.2-.7-.4-.7-.2-.6-.3h0c0,0-.2-.1-.2-.1l-.3-.2v-.3c0,0,0-.3,0-.3Z"/>
  <path class="st67" d="M48.6,31.2h.3s.2.3.2.3v.4c0,0-.2.6-.2.6l-.2,1.2-.2,1-.2.8-.4,2-.2.8h.1s0-.2,0-.2h.1v-.2c0,0,.4-1,.4-1l.5-.7h.2c0,0,.5,0,.5,0h.1s0,.5,0,.5l-.3,1-.3.9-.5,1.6-.2.8-.2.7v.6c-.1,0-.2.8-.2.8v1.2c0,0-.2.4-.2.4h-.6c0,0-.1.1-.1.1v.4c0,0,.4,1.5.4,1.5l.2.5.2.4.4,1.3.4,1,.3,1,.2.4.2.4v.6c.1,0,.1.3.1.3l-.2.2h-.3s-.2-.1-.2-.1l-.2-.3-.3-.7-.2-.5-.6-1.7-.2-.5-.4-1-.2-.7v-.3c-.1,0-.2-.5-.2-.5l-.2-.6v-.4c0,0-.2-.3-.2-.3v-.3c0,0-.2-.4-.2-.4v-1.7c0,0,0-.6,0-.6l.3-1.4.2-.8.4-1.4.3-1.3.2-.7.3-1.3.4-1.7.3-1.3v-.2c0,0,.3-.5.3-.5h.1Z"/>
  <path class="st24" d="M68,97.2h0c0,0,.1.1.1.1l-.3.3-.9.5-.9.4-.7.2h-1c0,.1-2,.2-2,.2l-13.8.3h-6.1c0,0-.8-.4-.8-.4h0c0-.1-.3-.2-.3-.2h-.1c0,0-.1-.2-.1-.2h.1v-.2c-.1,0,.2,0,.2,0h.2c0,0,.4,0,.4,0l.5.2h.3s0,.1,0,.1h.4c0-.1,0,0,0,0h.4s.2,0,.2,0h0c0,0,.5,0,.5,0h0c0-.1.3,0,.3,0h.2s.6,0,.6,0h.9c0,0,.2,0,.2,0v-.2c0,0,.1,0,.1,0h.4s0,.1,0,.1h.5s.6,0,.6,0h.3c0,0,.2,0,.2,0h.5c0,0,.8-.2.8-.2h.9s.3,0,.3,0h.2c0-.1-.2-.2-.2-.2h.2c0,0,.5,0,.5,0h.3s0,0,0,0h.3c0,0,.6-.1.6-.1h.3s1,0,1,0h1.1c0,0,.8-.1.8-.1h1.9s.4-.1.4-.1h.5c0,0,.6,0,.6,0h2.9s.4,0,.4,0h.4s1.1,0,1.1,0h.7c0,0,.3,0,.3,0h.2s1-.1,1-.1h.4c0-.1.4-.2.4-.2h.9c0,0,0-.1,0-.1h.5Z"/>
  <path class="st48" d="M47.3,59.9h1.1c0,0,.6,0,.6,0h.8c0,0,.2.1.2.1h0c0,0,.5.1.5.1h.8c0,.1.7.3.7.3h.2c0-.1.3-.2.3-.2h.4c0-.1.4-.2.4-.2h.1c0,.1.5.3.5.3v.2h.4l.3.2v.2c.1,0,0,.1,0,.1l.4.4.9.4.6.3.3.2.6.4.2.2v.5c0,0-.1.6-.1.6v.3c.1,0,.1.2.1.2h-.3v.6l-.2.3h-.3s-.7-.5-.7-.5l-.2-.2h0c0,0-.2-.1-.2-.1l-.3-.2-.4-.4h0c0,0-.3-.2-.3-.2l-.3-.2h0c0,0-.5-.3-.5-.3l-.3-.2-.8-.4-.6-.2h0c0,0-.6-.2-.6-.2l-.4-.2-.7-.2h-.2v-.2h-.1c0,0-.2-.2-.2-.2l-.2-.2-.2-.3h-1.7c0-.1-.3-.2-.3-.2h-.3v-.2h-.5c0,0-.2-.3-.2-.3v-.2c0,0,.4-.4.4-.4h.3Z"/>
  <path class="st3" d="M58.9,39.3h.3l.2.2.3.5.3.9.2,1.2.3.6.5.3.8.3h.2c0,0,0-.2,0-.2h0v1.3c-.1,0-.3.7-.3.7l-.3,1.3-.3,1.1-.4,1.1-.4,1.1-.6,1.3-.6,1.3-.7,1.4-.4.7-.4.7-.6,1.3-.6,1.2h-.4c0,0-.1,0-.1,0v-.3l.2-.7.4-1,.4-1,.3-.5.4-.8.4-.7.4-.7.5-1,.5-1v-.2c0,0,.3-.5.3-.5l.4-1,.3-1.1.2-1.1h0c0,0-.8-.1-.8-.1h0c0,0-.3.1-.3.1h-.1c0,0,0-1,0-1v-.7c.1,0,.1-1.5.1-1.5v-.6c-.1,0-.2-.4-.2-.4l-.2-.9v-.4c-.1,0-.2-1-.2-1h0Z"/>
  <path class="st36" d="M54.6,17.6h.2s.2.4.2.4h0c0,0,.2.1.2.1l.4.8.2.7.3,1,.3,1.3.3,1.2.4,1.3.2.8.2.4.2.6v.3c0,0-.2,0-.2,0h0c0,0-.4,0-.4,0l-.2-.2-.2-.3h-.1s0,.4,0,.4l.2.7.4.9.2.7.3.8.4,1.1.3.8v.7c0,0,.3.9.3.9v.6h-.4l-.2-.4-.4-1.1-.2-.8-.2-.7-.3-.9-.3-1-.4-.9-.6-1.5-.3-.8-.2-.7-.2-.3-.2-.5-.3-1-.2-1v-.2c0,0,.4,0,.4,0h.5s.2.4.2.4v.6c0,0,.2.4.2.4h.1s.1.3.1.3h.1s-.2-.9-.2-.9v-.5c0,0-.2-.6-.2-.6v-.4c-.1,0-.2-.7-.2-.7l-.4-1.4v-.8c-.1,0-.2-.1-.2-.1v-.4h.1Z"/>
  <path class="st3" d="M60.5,74.1h.4c0,0,.5.3.5.3l.5.3.3.2.6.5.5.3.3.4v.2h-.2c0,.1-1.9.7-1.9.7l-1.3.6-1,.6-.8.6-.7.5-.6.4-.4.2v-.2c0,0,.2,0,.2,0h0c0,0,.4-.4.4-.4v-.2c-.1,0-.2,0-.2,0v-1.3c0,0,0-.4,0-.4v-.3c0,0,.1-.2.1-.2v-.2c.1,0,.2-.4.2-.4l.2-.3h.3c0,0,.1-.3.1-.3l.2-.4.5-.4h.2c0-.1.6-.4.6-.4h.3c0,0,.6-.2.6-.2Z"/>
  <path class="st66" d="M39.5,84.8h.6c0,0,0,.4,0,.4h-.2c0,.1-.1.1-.1.1v.5c0,0,.1.6.1.6l.2.8.4.8.3.5.2.3.4.4h0c0,0,.3.2.3.2l.6.5,1.1.6,1,.4.7.2h.7c0,.1,1.7.2,1.7.2h1.6c0,.1-.3.3-.3.3h-.4c0,.1-.5.2-.5.2h-.3c0,0-.6.1-.6.1h-.7s-1,0-1,0h-.2s-.7,0-.7,0h-.7c0-.1-.4-.2-.4-.2h-.3c0-.1-.5-.1-.5-.1l-.5-.2-.8-.4h-.2c0-.1-.2-.1-.2-.1h0c0,0-.1,0-.1,0h0c0,0-.1,0-.1,0l-.2-.2h-.3c0-.1-.4-.6-.4-.6l-.3-.4h0c0,0-.1,0-.1,0l-.2-.3h-.2c0-.1-.3-.6-.3-.6v-.5c0,0-.3-.4-.3-.4l-.2-.7h-.2c0,0-.3,0-.3,0h-.1c0,0-.3,0-.3,0v-.2c-.1,0-.4,0-.4,0v-.2c0,0,.3-.3.3-.3l.3-.4.3-.2h0c0,0,.5-.3.5-.3h.5c0,0,.1,0,.1,0h.4c0,0,0-.1,0-.1Z"/>
  <path class="st68" d="M35.6,87.2h.4s.5.3.5.3l.4.2.5.6.2.2.3.5.2.5v.8c0,0,0,.5,0,.5v.4c-.1,0-.2.4-.2.4l-.3.6-.4.7-.6,1h-.2c0,0-.4,0-.4,0l-.6.3h-.1v-.2c0,0,0-.7,0-.7l.3-.5.2-.2v-.2c0,0,0-.2,0-.2v-.3c.1,0,0,0,0,0v-.2h-.2s.1,0,.1,0v-.2h.2v-.3c0,0,0-.2,0-.2h-.1s0,0,0,0h-.1c0,0,.1-.2.1-.2h-.2s-.2-.2-.2-.2v-.3c0,0,.1,0,.1,0h-.1l-.2-.3h-.2s0,.1,0,.1h-.1s0-.6,0-.6h.2-.2c0,0,0-.5,0-.5h-.2s0,0,0,0h-.2s0-.2,0-.2v-.2h.2c0-.1.1-.1.1-.1v-.3c0,0,.1-.2.1-.2h.1c0,0,.2,0,.2,0h.3s.3,0,.3,0h.1c0-.1.1-.5.1-.5Z"/>
  <path class="st48" d="M10.7,34.3h.7c0,0-.5.1-.5.1v.3c0,0,.2.2.2.2h.2s.3.3.3.3l.7.4h.4c0,.1.8.5.8.5l.3.2h.4c0,0,.5.4.5.4l.5.3h.3c0,.1.6.5.6.5l.4.3.5.3.8.6.6.5.6.6.4.3,1.1,1h0c0,0,.2.2.2.2l.3.2h0c0,0,.3.2.3.2h0c0,.1.2.2.2.2h.2v.2h.2s.3.1.3.1h0c0,0,.1,0,.1,0h0c0,.1.3.2.3.2l.4.3h.2v.2h.2v.2h.2l.3.2.4.2.2.2.8.4h.4s.1,0,.1,0h0c0,0,0-.5,0-.5h.2v.5l-.2.6.3.4.8.5h0c0,0,.3.2.3.2l.6.4.4.3h0c0,0,.2.2.2.2h.2v.2h.2c0,0,.3.4.3.4l.2.3v.4h-.1c0,0-.3,0-.3,0h-.2v-.2h-.3v-.2h-.3c0,0-.3-.3-.3-.3h-.3v-.2h-.3c0,0-.4-.4-.4-.4h0c0,0-.2-.1-.2-.1h0c0,0-.3-.2-.3-.2l-.5-.3-.8-.5-.6-.3-.4-.3-.4-.2-.4-.2-.2-.2h-.1c0-.1-.3-.2-.3-.2h-.2v-.2h-.2c0,0-.2-.2-.2-.2l-.6-.3h-.2c0-.1-.2-.2-.2-.2h0c0-.1-.2-.1-.2-.1h0c0,0-.3-.2-.3-.2h-.2v-.2h-.1c0,0-.1,0-.1,0h0c0,0-.2-.2-.2-.2h-.1c0-.1,0-.5,0-.5l.2-.2h.4v-.3h-.1l-.2-.4h0c0-.1-.2-.2-.2-.2h0c0-.1-.1-.1-.1-.1l-.2-.3h-.2v-.2h-.2c0,0-.7-.7-.7-.7l-.4-.3h0c0-.1-.1-.1-.1-.1h0c0,0-.2-.2-.2-.2h0c0,0-.2-.2-.2-.2l-.5-.3h0c0,0-.5-.4-.5-.4l-.5-.3h0c0,0-.2,0-.2,0l-.3-.2-.3-.2-.3-.2h-.3c0-.1-.3-.2-.3-.2h-.2c0-.1-.6-.4-.6-.4l-.5-.2-.7-.4-.7-.2-.6-.3h0c0,0-.2-.1-.2-.1l-.3-.2v-.3c0,0,0-.3,0-.3Z"/>
  <path class="st40" d="M60.9,72.1h.3l.5.2.4.2h0c0,0,.3.2.3.2l.5.3h.1v.2h.1s.3.2.3.2l.2.2.2.5h0c0,.1.2.2.2.2v.2c0,0,.6.1.6.1l.3.3.3.6h0c0,.1-.1.2-.1.2h.3c0,0,.2.2.2.2v.2c.1,0,.5,0,.5,0h0s-.4,0-.4,0h0c0,0-.3.2-.3.2h-.2s.2-.3.2-.3v-.2c0,0-.3-.2-.3-.2h-.3s-.8.4-.8.4h-.5c0,.1-.2,0-.2,0h.1s0-.4,0-.4l-.4-.4-.8-.6-.3-.3-.8-.5-.7-.2h-.9c0,.1-.6.2-.6.2v-.2c0,0,0,0,0,0v-.5c.1,0,.7-.8.7-.8l.2-.4.7-.3h.2Z"/>
  <path class="st18" d="M64.9,75.9h.2s.3.2.3.2v.2c0,0-.3.2-.3.2h-.4c0,.1,0,.2,0,.2h-.3s-.4,0-.4,0l-1.4.5-1.5.6-1.2.6-.5.3-.6.4h-.1c0,.1.9,0,.9,0l1.3-.3,1.3-.2h1.1c0,0,1.5-.1,1.5-.1h.4c0,0,.4,0,.4,0l.8.2.3.2v.2c0,0-.2,0-.2,0h-1.4s-.2,0-.2,0h-.3c0-.1-.5-.1-.5-.1l-2.2.2-1,.2-.8.2-.7.2-.9.2h-.4c0,.1-1,.4-1,.4h-.4c0-.1,0-.5,0-.5l.4-.4.5-.3.7-.6.9-.6,1-.6.8-.4.9-.4,2.4-.7.8-.3Z"/>
  <path class="st41" d="M49,36.1h.6s0,.5,0,.5l-.3,1-.3.9-.5,1.6-.2.8-.2.7v.6c-.1,0-.2.8-.2.8v1.2c0,0-.2.4-.2.4h-.6c0,0-.1.1-.1.1v.4c0,0,.4,1.5.4,1.5l.2.5.2.4v.2h-.1c0-.1-.3-.7-.3-.7l-.2-.6v-.5c-.1,0-.3-.6-.3-.6v-.3c-.1,0-.2-.4-.2-.4l-.2-.6v-1l.2-1.3v-.2c0,0,.4-1.6.4-1.6l.3-1.1.4-1.4.3-1h0v.4c0,0-.3,1.2-.3,1.2v.4c0,0,0,0,0,0v-.2h.2v-.2c0,0,.4-1,.4-1l.5-.7h.2Z"/>
  <path class="st13" d="M64,79.2h.6v1.1l.3.6.2.5.5.9h.2c0,0,.3.3.3.3l.4.2.5.2.4.2.7.2h1c0,.1.5.2.5.2h.4s-.3.3-.3.3l-.3.2h-.8s-.3,0-.3,0h-.7s-.8,0-.8,0h-.1s-.7,0-.7,0h0c0,0-.4.2-.4.2l-.4.4-.2.2h-.1v.2h-.2c0,0-.1,0-.1,0v.2c-.1,0-.3.1-.3.1h-.1c0,0-.4.3-.4.3h-.1c0,0-.3.3-.3.3l-.8.4-.8.3h-.7s-.2,0-.2,0h-1.5s0-.2,0-.2h.5c0-.1,1.1-.4,1.1-.4l.8-.3.8-.4.6-.4h.2c0-.1.1-.1.1-.1h0c0,0,.1,0,.1,0v-.2c.1,0,.3,0,.3,0h0c0,0,.1,0,.1,0v-.2c.1,0,.7-.7.7-.7l.4-.7.3-.7-.2-.5-.4-.7-.3-.7v-.9h-.9c0,0-.7.2-.7.2h-.5c0,0-.5.2-.5.2h-1c0,.1-.4.2-.4.2h-.8c0,.1-.7.4-.7.4l-.9.2h-.9c0,.1-.6.1-.6.1h-.1s0-.4,0-.4h.1c0,0,0,.1,0,.1h.4c0,0,.6,0,.6,0h.6c0-.1.5-.3.5-.3l1.1-.2h.5c0-.1,1-.4,1-.4l1.6-.2h1Z"/>
  <path class="st47" d="M39.8,93.8h.1l.4.4.4.3.3.2h0c0,0,.2.2.2.2l.4.3h0c0,0,.3.2.3.2l.4.3h.2s0,.1,0,.1l.6.3h.3v.2h.3s.5.2.5.2h.5c0,.1.4.3.4.3l1.4.3h.7c0,0,.7.1.7.1h2s.4,0,.4,0h.8s1.5-.1,1.5-.1h1.2c0,0,1.7-.1,1.7-.1h1.4s1,0,1,0h1.5c0,0,2.1-.1,2.1-.1h1.3s1.5,0,1.5,0h1.5c0,.1.2.2.2.2h2.3s1-.1,1-.1h.2c0,0-.9.2-.9.2h-1.1c0,0-.5.1-.5.1h-.8s-.6,0-.6,0h-.9s-2.3.1-2.3.1h-.5s-3.2,0-3.2,0h-1.8s-1.8,0-1.8,0h-.9s-.8,0-.8,0h-.2s-4.2,0-4.2,0h-.6s-1.1-.1-1.1-.1h-.4s-.2,0-.2,0l-.9-.2h-.6c0-.1-2-.9-2-.9l-.4-.2h-.4v-.2h-.2s-.5-.4-.5-.4l-.3-.2h0c0,0-.1,0-.1,0v-.2h-.2l-.3-.3h-.1c0-.1-.1-.1-.1-.1l-.4-.5h0Z"/>
  <path class="st41" d="M11.1,40.7l.2.2.4.8.4.9.2.5.2.3.4.8h0c0,.1.3.2.3.2v-.2c0,0,0-.4,0-.4v-.3l.2-.2h.4l.3.2.2.2.2.3.2.2.3.7.3.7.2.4.2.6.3.5v.3c.1,0,.4.5.4.5l.3.6.4.7.3.6.3.4.2.2.2.5.3.3.2.4h0c0,.1.1.1.1.1l.2.4.6,1.1.3.3.2.4.2.2h.1s.4.8.4.8l.3.4.2.3v.2c0,0,0,.4,0,.4h0c0,0-.6,0-.6,0l-.5-.6h0c0,0-.2-.2-.2-.2l-.3-.4h0c0,0-.1,0-.1,0l-.2-.4-.4-.5-.2-.3-.3-.5h0c0,0-.2-.2-.2-.2l-.2-.2-.4-.5-.2-.3h0c0,0-.7,0-.7,0h-.2s-.2-.2-.2-.2l-.4-.2-.2-.2v-.2c-.1,0-.6-.9-.6-.9l-.3-.6-.6-1.1-.2-.5h0c0-.1-.1-.1-.1-.1l-.2-.5-.2-.4-.3-.7-.3-.6-.3-.6-.2-.3v-.3c0,0-.2-.2-.2-.2l-.4-.9-.2-.5h.1l.4.8.3.7.2.4.3.5.2.5.4.8.3.6.3.7.2.4.2.4.3.7.4.7.2.4.2.3.2.4.2.2.2.2h.3c0,.1.2.3.2.3h.3s.2-.1.2-.1h.3s.2.2.2.2v.4h.3c0,0,.2.3.2.3l.3.6.2.3v.2c0,0,.2,0,.2,0v.2c.1,0,.1.1.1.1h.1l.2.3.3.3.2.3.4.4.2.3v.2h.2l.2.3h.3c0,.1.2.1.2.1v-.5h-.2l-.2-.3-.2-.4-.4-.5h-.2c0-.1-.2-.6-.2-.6l-.5-.6h-.1s-.2-.7-.2-.7l-.5-.7-.6-1-.2-.5-.2-.3-.2-.3-.3-.6-.2-.5-.3-.4-.3-.7-.2-.3h0c0,0-.1-.1-.1-.1l-.6-1.5-.2-.2-.2-.3-.2-.5-.3-.5h0c0-.1-.1-.1-.1-.1l-.3-.6h0c0,0-.5,0-.5,0v.4c0,0,.2.4.2.4l.4.8.2.5.3.4.2.6.2.3.2.5h.1c0,.1.2,1,.2,1l.5,1.1v.2h.1l.2.5.2.4.2.4v.3h-.3c0,0-.3-.6-.3-.6l-.2-.5-.3-.3-.2-.6-.4-.7-.3-.6-.2-.4-.2-.4-.3-.7-.2-.4h0c0,0-.2-.1-.2-.1v-.2c-.1,0-.3-.6-.3-.6l-.4-.9h-.1s-.3-.9-.3-.9l-.2-.4-.2-.2h0c0,0-.1,0-.1,0l-.4-1.1-.4-.7-.2-.6h0Z"/>
  <path class="st53" d="M61.1,46.1h.2s0,.3,0,.3h0c0,.1-.3,1.1-.3,1.1l-.4,1.1-.4,1.1-.6,1.3-.6,1.3-.7,1.4-.4.7-.4.7-.6,1.3-.6,1.2h-.4c0,0-.1,0-.1,0v-.3l.2-.7.4-.7.3-.7.4-.8.6-1.2.4-.8.4-.7.6-1.1.4-.9.3-.6.3-.7.3-.7.3-.8.2-.5.2-.2Z"/>
  <path class="st2" d="M68.3,75.3h.3s-.1.1-.1.1l-1,.5-.8.3-.4.2-.6.2h-.2c0,.1-.5.2-.5.2h0c0,0-.1,0-.1,0v.3c0,0,0,.6,0,.6v.5c0,0,.2,0,.2,0h-.1c0,0-.3.1-.3.1h-1.5s-1.1.1-1.1.1l-1.8.3-1,.2h-.7s0,0,0,0l1-.6.7-.4,1-.5,1.5-.6,1.1-.4h.7c0,0,.1,0,.1,0l.5-.2h.2s-.1.2-.1.2h.2c0,0,.2-.1.2-.1h0c0,0,.5-.2.5-.2l1-.4.7-.2.5-.3Z"/>
  <path class="st0" d="M5.1,30.8h.2l.5.6v.2c0,0,.2,0,.2,0h0c0,0,.2.1.2.1l.3.5v.2h.2l.3.5,1,1.8.4.7,1.2,2.2.2.5.4.7.2.5.4.7.2.5.4.7.3.8.3.6v.2c.1,0,.2.5.2.5v.4h.3c0,.1.2.3.2.3v.4c.1,0,.2.8.2.8h-.3c0-.1-.3-.7-.3-.7l-.2-.4-.4-.9-.3-.6-.3-.7-.3-.6-.3-.6-.3-.7-.7-1.3-.6-1.1-.4-.7-.3-.6-.3-.5-.4-.8-.4-.7-.2-.3-.4-.6-.4-.7-.3-.4-.2-.5-.4-.5-.2-.2v-.2Z"/>
  <path class="st69" d="M47.5,60h.7s1.3,0,1.3,0h.5v.2h.5s.8.2.8.2l.6.2h0c0,0,.3.1.3.1l1.1.4.8.3.2.2h.3c0,0,.3.3.3.3h.3c0,.1,0,.2,0,.2h-.3s-.1,0-.1,0h-.1c0,.1.2.2.2.2h-.5c0,0-.3,0-.3,0h-.2c0,0-.3-.1-.3-.1h0c0,0-.2-.1-.2-.1h-.1c0-.1-.5-.1-.5-.1h-.2s-.3-.3-.3-.3h-.4l-.3-.2h0s.1,0,.1,0h0c0,0,.3.1.3.1h.2c0,.1,0,.4,0,.4h-.3s-.2-.1-.2-.1h-.7v-.2h-.2s-.1-.2-.1-.2l-.6-.2-.3-.2h-.2s-1.1-.1-1.1-.1l-1.1-.2-.3-.2v-.2c-.1,0,0-.2,0-.2h.4Z"/>
  <path class="st13" d="M40.6,79.1h1.4c0,.1.3.2.3.2h.1c0,.1-.3.2-.3.2v.2c-.1,0-.5.3-.5.3l-.6.4-.4.4-.3.4-.4,1.2v.5c-.1,0-.2.9-.2.9h-.1c0,.1-.3.2-.3.2l-1,.3h-.2s0,0,0,0h.1v-.2c0,0,.1-.1.1-.1l.2-.5h0v-.4l.2-.9.3-.9.2-.4v-.2c0,0,.3-.4.3-.4l.3-.5.2-.2h.1c0,0,.6-.3.6-.3Z"/>
  <path class="st18" d="M40.7,83.8h1.6l1.2.2.8.2.3.2v.2c0,0-.3,0-.3,0h-.5s-.9-.2-.9-.2h-.5s-1.6,0-1.6,0h-1c0,.1-.5.3-.5.3h-.5c0,.1-.8.5-.8.5l-.6.3-.9.6-.6.5-.3.5-.3.3h-.1s-.4,0-.4,0h-.2v-.6l.3-.4h.3v-.3l.5-.3.7-.5.5-.4.5-.3,1-.5,1.1-.3h1.3Z"/>
  <path class="st39" d="M59.5,75.2h.2c0,0,.2.2.2.2h.5c0,.1.1.3.1.3l.9.2h.3c0,.1.3.2.3.2h.6v-.4c0,0,0-.2,0-.2l.5.3.4.3.2.3v.2h-.1c0,0-1.9.7-1.9.7l-1.3.6-1,.6-.8.6-.4.3h-.1v-.2c.1,0,.5-.4.5-.4v-.4c.1,0,.2-.4.2-.4l.5-.7.4-.4.2-.4v-.3c-.1,0,0-.2,0-.2v-.6Z"/>
  <path class="st69" d="M38,89.1h.3s.4.4.4.4l.4.3.4.6v.3c.1,0,.3.2.3.2l.2.2.3.3.3.2.2.4h.2c0,0,.4.1.4.1h0c0,0,.2,0,.2,0l.6.2.4.2h0c0,0,.2.1.2.1l.3.2v.2c0,0-.7,0-.7,0h-.7c0,0-.5.2-.5.2h-.4c0,0-.2-.2-.2-.2h0c0,0-.1,0-.1,0l-.3-.2-.4-.3h0c0,0-.2,0-.2,0h0c0,0-.2-.2-.2-.2l-.3-.2h0c0,0-.2-.1-.2-.1l-.2-.3-.2-.2v-.2c0,0,0-.7,0-.7v-.7c-.1,0-.3-.4-.3-.4v-.4Z"/>
  <path class="st65" d="M54.6,17.6h.2s.2.4.2.4h0c0,0,.2.1.2.1l.4.8.2.7.3,1,.3,1.3.3,1.2.4,1.3.2.8.2.4.2.6v.3c0,0-.1,0-.1,0h-.5c0,0-.3-.5-.3-.5l-.2-.4v-.2c0,0-.2,0-.2,0v-.6c-.1,0-.4-.9-.4-.9l-.2-.8-.2-.7-.2-.5v-.2h-.1v-.4c-.1,0-.2-.7-.2-.7l-.4-1.4v-.8c-.1,0-.2-.1-.2-.1v-.4h.1Z"/>
  <path class="st41" d="M10.7,34.3h.7c0,0-.5.1-.5.1v.3c0,0,.2.2.2.2h.2s.3.3.3.3l.7.4h.4c0,.1.8.5.8.5l.3.2h.4c0,0,.5.4.5.4l.5.3h.3c0,.1.6.5.6.5l.4.3.5.3.8.6.6.5.6.6.4.3,1.1,1h0c0,0,.2.2.2.2l.3.2h0c0,0,.3.2.3.2h0c0,.1.2.2.2.2h.2v.2h.2s.3.1.3.1h0c0,0,.1,0,.1,0h0c0,.1.3.2.3.2l.4.3h.2v.2h.2v.2h.2l.3.2.4.2.2.2.8.4h.4s.1,0,.1,0h0c0,0,0-.5,0-.5h.2v.5l-.2.6.3.4h-.2c0,0-.4-.3-.4-.3h-.3c0,0-.5-.4-.5-.4h-.1c0-.1-.2-.2-.2-.2l-.3-.2h-.3c0-.1-.6-.5-.6-.5l-.5-.2-.7-.6h-.3c0-.1-.4-.4-.4-.4l-.3-.2-.5-.3h-.3v.2c0,0,0,.2,0,.2h.2l.4.4h.2c0,0,.2.3.2.3h.3c0,0,.1.3.1.3l.6.4.5.3h0c0,0,.2.2.2.2l.4.2.9.5.4.3.4.2h0c0,0,.2.2.2.2l.9.5.3.3h-.2c0,0-1-.7-1-.7l-.6-.3-.6-.4-.4-.2-.4-.2-.2-.2h-.1c0-.1-.3-.2-.3-.2h-.2v-.2h-.2c0,0-.2-.2-.2-.2l-.6-.3h-.2c0-.1-.2-.2-.2-.2h0c0-.1-.2-.1-.2-.1h0c0,0-.3-.2-.3-.2h-.2v-.2h-.1c0,0-.1,0-.1,0h0c0,0-.2-.2-.2-.2h-.1c0-.1,0-.5,0-.5l.2-.2h.4v-.3h-.1l-.2-.4h0c0-.1-.2-.2-.2-.2h0c0-.1-.1-.1-.1-.1l-.2-.3h-.2v-.2h-.2c0,0-.7-.7-.7-.7l-.4-.3h0c0-.1-.1-.1-.1-.1h0c0,0-.2-.2-.2-.2h0c0,0-.2-.2-.2-.2l-.5-.3h0c0,0-.5-.4-.5-.4l-.5-.3h0c0,0-.2,0-.2,0l-.3-.2-.3-.2-.3-.2h-.3c0-.1-.3-.2-.3-.2h-.2c0-.1-.6-.4-.6-.4l-.5-.2-.7-.4-.7-.2-.6-.3h0c0,0-.2-.1-.2-.1l-.3-.2v-.3c0,0,0-.3,0-.3Z"/>
  <path class="st68" d="M68.4,75.4h.6c0,0,.3,0,.3,0h.4-.1s0,.2,0,.2h-.1s-.2.3-.2.3h-.2c0,0,0,.3,0,.3l-.7.4-.5.3h-.2c0,.1-.1.1-.1.1h0c0,0-.4.3-.4.3h-.5c0,.1-.2.3-.2.3h-.5c0,.1-.3.3-.3.3h-.2c0,0-.1,0-.1,0h0c0,.1-.4.3-.4.3h-.2v.2h-.2s0-.3,0-.3v-.4c0,0,0-.6,0-.6v-.2h.2c0,0,.5-.2.5-.2l.3-.2.8-.3.5-.2.7-.2.6-.3h.2Z"/>
  <path class="st48" d="M49.2,36.1h.4s0,0,0,0v.3l-.3,1-.3.9-.5,1.6v.2h-.2v.6c-.1,0-.4,1-.4,1v.8c-.1,0-.2.6-.2.6v1c-.1,0-.4,0-.4,0h-.2c0-.1,0-.3,0-.3v-1.6c0,0,.1-.2.1-.2v-.5c0,0,.2-.3.2-.3l.2-1.3.2-.9.2-.5.2-.5v-.6c.1,0,.3-.4.3-.4l.2-.5.4-.6h.1Z"/>
  <path class="st18" d="M54.6,85h.4s0,.4,0,.4l-.3.8-.4.7-.4.5-.6.4-.5.3-.8.3h-.7c0,.1-.5.1-.5.1l-.8-.2-1-.4-.4-.3-.4-.3h0c0,0,0-.5,0-.5h.2s.3,0,.3,0l.6.4.5.3.5.2h.3c0,0,1,0,1,0l.6-.2.8-.5.5-.6.5-.9.3-.6h.2Z"/>
  <path class="st8" d="M65.4,73h.6c0,0,0,.2,0,.2h.6c0,0,.4.5.4.5h0c0,0,.3.2.3.2h.4c0,.1.1.1.1.1l.7,1.2h0c0,.1-.4.3-.4.3l-.3.2h-.3s-.5,0-.5,0v-.2c0,0,0-.2,0-.2h-.2c0,0-.3-.4-.3-.4h0c0,0-.2-.2-.2-.2h0c0-.1-.1-.1-.1-.1v-.2c-.1,0-.7-.7-.7-.7l-.2-.4v-.2c0,0,.1,0,.1,0Z"/>
  <path class="st51" d="M4.5,29.6h.3c0,0,.3.3.3.3h0c0,.1.1.1.1.1l.4.6.3.5.6.9.2.3.5.8.4.7v.3c0,0-.2-.2-.2-.2l-.8-1.4h-.1v-.2c-.1,0-.4-.5-.4-.5l-.3-.2-.4-.5h-.2v-.2h-.2v.3c.1,0,.4.5.4.5l.3.4.2.3.4.7.2.5.3.5.3.5.4.8.7,1.3.2.4.8,1.5.5,1,.4.7.3.7.4.7.5,1.1h.1v.5h-.1l-.3-.7h0s-.1-.5-.1-.5l-.4-.7-.5-1-.4-.7-.2-.5-.2-.3-.2-.4-.3-.6-.4-.7-.2-.5-.3-.4-.4-.7-.5-.7v-.3c-.1,0-.4-.4-.4-.4l-.4-.7-.2-.4h0c0-.1-.1-.1-.1-.1l-.2-.2-.2-.3-.2-.2-.2-.4-.4-.7-.3-.5-.2-.3v-.3c0,0,.1,0,.1,0Z"/>
  <path class="st0" d="M59.2,69.8h.2v.3l-.5,1-.8,1.9-.5,1.3-.7,2.1-.3.7v.5c-.1,0-.3.4-.3.4h-.1v-.9c.1,0,.2-.5.2-.5l.2-.5.2-.7v-.5c.1,0,.6-1.4.6-1.4l.3-.7v-.3c.1,0,.4-.8.4-.8l.2-.4h.1v-.3c0,0,.4-.6.4-.6l.2-.3.3-.2Z"/>
  <path class="st0" d="M60.5,74.4h.5s.5.3.5.3h0c0,0,.3.2.3.2h.2v.2h.2s.4.4.4.4h.1c0,.1,0,.5,0,.5h-.2c0,.1-.5.1-.5.1l-.9-.3h-.6c0,0-.2-.3-.2-.3h-.5c0-.1-.3-.4-.3-.4v-.3l.2-.3h.4c0-.1.4-.2.4-.2Z"/>
  <path class="st68" d="M64.5,79.3h.1c0,0,0,.2,0,.2l.3.2v.3c0,0,0,.1,0,.1v.2c0,0,0,0,0,0v.3h.1s.2.6.2.6l.4.2h0c0,.1.2.2.2.2v.2c0,0,.6.2.6.2l.7.2h.4c0,0,.8.4.8.4v.2c.1,0,.1,0,.1,0h1s.3,0,.3,0h.7s.2,0,.2,0h0c0,0,.3-.2.3-.2h.3c0-.1.2,0,.2,0h.3c0-.1.4-.2.4-.2h0c0,.1-.4.2-.4.2l-.4.2-1.1.3-.4.2h-.6s-.8-.2-.8-.2l-.8-.2h-.4c0-.1-.3-.3-.3-.3l-.5-.2-.5-.3-.4-.4-.6-1-.2-.5v-.2c-.1,0-.1-1-.1-1Z"/>
  <path class="st25" d="M64,79.2h.6v1.1l.3.6.2.5.5.9h.2c0,0,.3.3.3.3l.4.2.5.2.4.2.7.2h1c0,.1.5.2.5.2h.4s-.2.1-.2.1h-.3s-.7,0-.7,0l-.9-.2-1-.3-.3-.2h-.4c0-.1-.2-.2-.2-.2h0c0,0-.2-.1-.2-.1l-.2-.2h0c0,0-.1,0-.1,0h-.1v-.3h-.1l-.2-.5-.4-.7-.3-.7v-.9h-.9c0,0-.7.2-.7.2h-.5c0,0-.5.2-.5.2h-1c0,.1-.4.2-.4.2h-.8c0,.1-.7.4-.7.4l-.9.2h-.9c0,.1-.6.1-.6.1h-.1s0-.4,0-.4h.1c0,0,0,.1,0,.1h.4c0,0,.6,0,.6,0h.6c0-.1.5-.3.5-.3l1.1-.2h.5c0-.1,1-.4,1-.4l1.6-.2h1Z"/>
  <path class="st41" d="M55.3,21.6v.2c.1,0,.3.5.3.5v.2c0,0,.5,1.6.5,1.6l.2.6v.6c.1,0,.3.2.3.2v.2c0,0,.3.5.3.5v.2c.1,0,.5,0,.5,0h0c0,0-.4,0-.4,0l-.2-.2-.2-.3h-.1s0,.4,0,.4l.2.7.4.9v.2-.2c-.1,0-.4-.6-.4-.6l-.2-.5-.3-1-.3-.7-.4-1.3v-.2c-.1,0-.2,0-.2,0l-.3-1-.2-.2h0c0,0-.1,0-.1,0h-.2c0-.1-.4-.3-.4-.3v.4c0,0,.2.3.2.3v.6c.1,0,.7,1.7.7,1.7v.3c.1,0,.2.4.2.4h-.1c0-.1-.2-.8-.2-.8l-.2-.3-.2-.5-.3-1-.2-1v-.2c0,0,.4,0,.4,0h.5s.2.4.2.4v.6c0,0,.2.4.2.4h.1s.1.3.1.3h.1s-.2-.9-.2-.9v-.5c0,0-.2-.3-.2-.3v-.3Z"/>
  <path class="st57" d="M68.3,75.3h.3s-.1.1-.1.1l-1,.5-.8.3-.4.2-.6.2h-.2c0,.1-.5.2-.5.2h0c0,0-.1,0-.1,0v.3c0,0,0,.6,0,.6v.5c0,0,.2,0,.2,0h-.1c0,0-.3.1-.3.1h-1.5s-1.1.1-1.1.1l-1.8.3-1,.2h-.7s0,0,0,0l1-.6h.2c0-.1.1,0,.1,0h-.1c0,0,1.5,0,1.5,0h1.7c0-.1,1-.1,1-.1h.4c0,0,.2-.2.2-.2v-1.1c0,0,0-.1,0-.1h-.4s0-.1,0-.1h-.2c0,0,.4,0,.4,0h.3c0,0,.1,0,.1,0l.5-.2h.2s-.1.2-.1.2h.2c0,0,.2-.1.2-.1h0c0,0,.5-.2.5-.2l1-.4.7-.2.5-.3Z"/>
  <path class="st47" d="M64.2,79.3h.3v.9l.3.8.4.7v.4c.1,0,0,0,0,0v-.2h-.1v-.4c-.1,0-.3,0-.3,0l-.3-.4-.2-.4v-1.3h-.4c0,0-.1,0-.1,0h0c0,.1-.4.3-.4.3h0c0,0-.5.1-.5.1h-.1s-1.1,0-1.1,0h-.9c0,.1-.5.3-.5.3h-.4s0,0,0,0h-.8c0,0-.5.1-.5.1h-.6c0,0-.3.2-.3.2h-.5s-.6,0-.6,0h-.3c0,0,0-.2,0-.2h0c0,0,.7,0,.7,0l1.3-.2,1-.3h.4c0-.1.9-.3.9-.3h.4c0,0,.8-.2.8-.2h.5c0-.1.7-.3.7-.3h1.1Z"/>
  <path class="st0" d="M38.8,76.6h.5s.8.2.8.2l.6.2h.1s.2.4.2.4l.3.2h.3c0,.1.2,0,.2,0h.2c0,.1-.2.2-.2.2h0c0,0-.5-.1-.5-.1h-.5l-.6-.2h-.9c0,0-.4,0-.4,0h-.5s0,0,0,0h-.5l-.2-.2v-.3c0,0,.4-.2.4-.2h.5c0-.1.3-.3.3-.3Z"/>
  <path class="st41" d="M48.4,31.4h0v.8c-.1,0-.4,1.3-.4,1.3l-.2.9-.2.7-.2.7-.2.7-.2.8-.4,1.6-.3,1.3v.6c0,0-.2.4-.2.4v1.1c0,0,0,.5,0,.5h0c0,.1,0,.9,0,.9l.2.7v.7h0c0,0,.1.9.1.9v.2c0,0,0,.2,0,.2h-.1c0-.1-.2-.7-.2-.7v-.4c0,0-.2-.3-.2-.3v-.3c0,0-.2-.4-.2-.4v-1.7c0,0,0-.6,0-.6l.3-1.4.2-.8.4-1.4.3-1.3.2-.7.3-1.3.4-1.7.3-1.3v-.2c0,0,.2-.3.2-.3Z"/>
  <path class="st0" d="M55.9,26.9l.2.2v.5c.1,0,.4.2.4.2l.2.2.2.5v.4c0,0,.2,0,.2,0l.2.4.2.3v.4c.1,0,.2.3.2.3v.7c.1,0,.2.2.2.2h.1v.4c.1,0,.2.3.2.3v.5c0,0,.2.3.2.3v.7c0,0-.2,0-.2,0l-.2-.3-.2-.4-.2-1-.3-.7-.3-.9-.2-.5-.2-.6v-.3c-.1,0-.3-.4-.3-.4v-.6c-.1,0-.2-.2-.2-.2l-.2-.3v-.3Z"/>
  <path class="st0" d="M47,46.1h0v.4c0,0,.2.5.2.5v.2c0,0,.3.6.3.6v.2h.2c0,0,.2.5.2.5l.2.9v.2c.1,0,.1.1.1.1h.2c0,0,.3.6.3.6v.4c.1,0,.2.6.2.6l.2.5.2.2v.2c0,0,0,.2,0,.2h-.2s-.2-.1-.2-.1l-.2-.4h0v-.4h-.1l-.2-.4-.3-.7-.4-1.1-.3-.9-.4-1.4v-.3c-.1,0-.2-.4-.2-.4l.2-.2Z"/>
  <path class="st41" d="M59.2,41.3h.1s.4,1.5.4,1.5v.9c0,0,.2,1.5.2,1.5h.4c0,0,.2,0,.2,0h0s.3-.2.3-.2h.2c0,0,.2,0,.2,0v.3c0,0,0,.2,0,.2l-.2.7-.3,1-.4,1.2-.4,1v-.2c0,0,.4-1.1.4-1.1l.3-1.1.2-1.1h0c0,0-.8-.1-.8-.1h0c0,0-.3.1-.3.1h-.1c0,0,0-1,0-1v-.7c.1,0,.1-1.5.1-1.5v-.6c-.1,0-.2-.4-.2-.4v-.4Z"/>
  <path class="st0" d="M45.1,80.4h.2s.4.3.4.3l.3.2h0c0,.1.2.2.2.2l.3.2.3.3.7.2.2.2.5.3.6.5v.2c.1,0,.1.4.1.4h0s-.4,0-.4,0l-.5-.3-.2-.2-.4-.2-.5-.4-.4-.3-.5-.5h0c0,0-.1,0-.1,0l-.2-.3-.3-.2-.2-.2v-.2c-.1,0-.2,0-.2,0Z"/>
  <path class="st69" d="M57.8,70.5h.1s0,.5,0,.5l-.8,1.5h-.1s-.5,1.2-.5,1.2l-.4,1.1-.3.7-.3,1.3-.2.4h-.2v-.5l.2-1.1.2-.7.2-.6.4-.9.3-.6.4-.8.2-.4.2-.4.3-.4v-.3h.3Z"/>
  <path class="st47" d="M43.8,84.1h.4s.4.3.4.3h0s0,.4,0,.4l-.2.3h-.7c0,.1-.6,0-.6,0l-1-.2h-.6c0-.1-.8,0-.8,0h-.2c0,.1-.2.1-.2.1h0c0,0-.3.2-.3.2v-.3c0,0-.3,0-.3,0h-.5c0,0-.4.2-.4.2h-.3s.3-.2.3-.2l.7-.2h.4c0,0,.7-.2.7-.2h2.6c0,.1.6.3.6.3h.5s0-.2,0-.2l-.3-.2h-.4v-.2Z"/>
  <path class="st69" d="M54.7,18h.2v.6h0s0,.5,0,.5l.2.2v.3c0,0,0,.1,0,.1h.1v.2c0,0,0,0,0,0l.2.4.2.3v.3h.3l.2.6v.5c0,0,.2.4.2.4v.7c0,0,.3.6.3.6h0c0,0,.1,0,.1,0l.2.5v.2c0,0-.1.2-.1.2h-.2c0,0-.2-.6-.2-.6v-.5c-.1,0-.3-.4-.3-.4l-.2-.8v-.3c-.1,0-.3-.6-.3-.6v-.4c-.1,0-.2-.5-.2-.5l-.2-.7-.2-.5v-.7c-.1,0-.2,0-.2,0v-.4c0,0,0-.6,0-.6h0Z"/>
  <path class="st4" d="M63.8,76.8h.3c0,.1-.6.4-.6.4h-.1c0,0,.7,0,.7,0h.5c0,0,0,.6,0,.6v.4c0,0-.2.1-.2.1h-.2s-.6,0-.6,0l-.5-.3-.3-.2v-.5c.1,0,0-.1,0-.1h-.1s0-.1,0-.1l.9-.3Z"/>
  <path class="st69" d="M48.6,31.5h.1c0,.1.1.2.1.2v1c0,0-.2,1.1-.2,1.1v.3c-.1,0-.5,2-.5,2h-.2c0,.1-.2.3-.2.3v-1.2l.3-1.3.2-.7.3-1.2v-.2c.1,0,.1-.3.1-.3h0Z"/>
  <path class="st41" d="M52.8,60.2h.4c0,.1.5.3.5.3v.2h.4l.3.2v.2c.1,0,0,.1,0,.1l.4.4h-.1s-.6-.2-.6-.2l-1.2-.4-1-.3h.1c0-.1.1-.1.1-.1h0c0,0,.3-.2.3-.2h.4c0-.1.1-.2.1-.2Z"/>
  <path class="st11" d="M4.5,29.6h.3c0,0,.3.3.3.3h0c0,.1.1.1.1.1l.4.6.3.5.6.9.2.3.5.8.4.7v.3c0,0-.2-.2-.2-.2l-.8-1.4h-.1v-.2c-.1,0-.4-.5-.4-.5l-.3-.2-.4-.5h-.2v-.2h-.2v.2h-.3c0-.1-.3-.7-.3-.7l-.2-.3v-.3c0,0,.1,0,.1,0Z"/>
  <path class="st59" d="M40.1,85h0v.2l-.2.2v.4h0v1c.1,0,.3.6.3.6l.4.7.4.5.4.4.4.3.4.3.8.5,1,.4.6.2h.6c0,.1.4.1.4.1h0c0,0,.3,0,.3,0h.2c0,0,2.3.1,2.3.1h0s-1.3,0-1.3,0h-1.4s-.8-.2-.8-.2l-.8-.2-.8-.3-.8-.4-.4-.3-.6-.4-.3-.2-.5-.5-.3-.5-.4-.7v-.2c-.1,0-.3-.8-.3-.8l-.2-.6v-.4c0,0,.4-.3.4-.3h0Z"/>
  <path class="st59" d="M7.4,33.8h.2c0,.1.4.8.4.8l.5.9.2.2.6,1,.4.7.4.7.6,1.1.4.7.2.4v.2c.1,0,.2.4.2.4v.3c.1,0,0,.2,0,.2l-.3-.7-.3-.4-.2-.5-.4-.7-.3-.6-.5-.8-.3-.6-.4-.6-.4-.7-.3-.5-.8-1.4v-.3Z"/>
  <path class="st0" d="M16.2,37.4h.3s.3.1.3.1h.2c0,.1,0,.2,0,.2h.3s0,.2,0,.2h.2c0,.1.1.1.1.1l.3.2.3.2h0c0,0,.1,0,.1,0l.2.2h0c0,0,.1,0,.1,0v.2h.1c0,.1.2.2.2.2l.4.5h.2v.2h-.2s-.1,0-.1,0h0c0,0-.2,0-.2,0h0c0,0-.2-.1-.2-.1l-.3-.2-.4-.3-.4-.4-.3-.2-.2-.2h0c0,0-.1,0-.1,0h0c0,0-.2-.2-.2-.2l-.2-.2-.2-.2h0c0,0-.3-.1-.3-.1h0Z"/>
  <path class="st9" d="M54.3,85h.2s-.3.7-.3.7l-.6,1-.5.5-.6.4h-.4s.2-.2.2-.2l.4-.2.3-.3v-.4c.1,0,.1-.1.1-.1v-.2h.3v-.3h.2s0-.2,0-.2h.1c0-.1.1-.1.1-.1v-.2c.1,0,.2-.1.2-.1h.1c0,0,.2-.2.2-.2Z"/>
  <path class="st72" d="M59.4,50h.1c0,.1,0,.4,0,.4l-.4.8-.5,1-.4.7-.6,1.2-.3.6-.2.4-.4.9-.2.3h0c0-.1.4-1.1.4-1.1l.3-.7.3-.5.4-.8.4-.7.4-.7.5-1,.4-.8Z"/>
  <path class="st33" d="M64.4,79.3h0v.9c0,0,.3.6.3.6l.2.5.5.9h.2c0,0,.3.3.3.3l.4.2.5.2.4.2.7.2h1c0,.1.5.2.5.2h.4s-.2.1-.2.1h-.3s-.7,0-.7,0l-.9-.2-1-.3-.3-.2h-.4c0-.1-.2-.2-.2-.2h0c0,0-.2-.1-.2-.1l-.2-.2h0c0,0-.1,0-.1,0h-.1v-.3h-.1l-.2-.5-.4-.7-.3-.7v-.9Z"/>
  <path class="st16" d="M36.9,85.9h.2c0,0-.1,0-.1,0l-.3.7h.2v.4l-.2.2h-.5s-.5-.2-.5-.2v-.2l.5-.5.5-.4h.2Z"/>
  <path class="st34" d="M48.6,31.2h.3s.2.3.2.3v.4c0,0-.2.6-.2.6l-.2,1.2-.2,1-.2.8v.5h-.2v-.7c0,0,.3-1.2.3-1.2v-.3c.1,0,.3-1.1.3-1.1v-1c0,0-.1-.1-.1-.1v.3l-.2.3h-.1s.1-.8.1-.8h.2Z"/>
  <path class="st33" d="M48.7,87.4l.4.3.7.4.7.3h.6c0,.1.5.1.5.1l.8-.2.9-.4.5-.4h.2c0,0-.3.2-.3.2h-.3c0,.1-.2.3-.2.3h-.1c0,0-.4.1-.4.1h0c0,0-.8.4-.8.4h0s-.9.1-.9.1h-.5c0-.1-.5-.3-.5-.3l-1-.4-.2-.2-.2-.3h0Z"/>
  <path class="st12" d="M54.6,17.6h.2s.6,1.3.6,1.3l.2.7v.5c0,0,0,.6,0,.6h-.1c0,0-.2-.5-.2-.5v-.2c0,0,0,0,0,0h0c0,0-.1,0-.1,0v-.3l-.2-.3v-.2c0,0-.1-.3-.1-.3v-.2c0,0,0-.5,0-.5h-.1v.6h-.1v-.4c-.1,0-.1-.4-.1-.4h.1Z"/>
  <path class="st14" d="M43.8,84.1h.4s.4.3.4.3h0v.3l-.4.2h-.4l-.6-.2h-1.2c0-.1-1.2-.1-1.2-.1h-.5c0,0-.2.1-.2.1h0c0,0-.1,0-.1,0h0c0,0-.2,0-.2,0h-.5c0,0-.4.2-.4.2h-.3s.3-.2.3-.2l.7-.2h.4c0,0,.7-.2.7-.2h2.6c0,.1.6.3.6.3h.5s0-.2,0-.2l-.3-.2h-.4v-.2Z"/>
  <path class="st52" d="M50.8,88.7h.3s.1,0,.1,0v.2c0,0-.2.2-.2.2h-.1v.2c-.1,0-.4.3-.4.3h-.3c0,.1-.2.4-.2.4l-.4.3-.5.4-.3.2h-.2s-.5,0-.5,0h0s.7-.2.7-.2l.7-.5.4-.5.3-.5.2-.3v-.3c.1,0,.4-.1.4-.1Z"/>
  <path class="st0" d="M69.8,83.8h.5c0,0,0,.3,0,.3l-.2.3-.4.5h-.1v.2c-.1,0-.3,0-.3,0h0v-.7l.2-.6h.3Z"/>
  <path class="st33" d="M63.8,79.3h.4s-1.4.2-1.4.2h-.5c0,0-.5.2-.5.2h-1c0,.1-.4.2-.4.2h-.8c0,.1-.7.4-.7.4l-.9.2h-.9c0,.1-.6.1-.6.1h-.1v-.3h.3c0,.1.6.1.6.1h.6c0,0,.9-.3.9-.3l.7-.2h.3c0,0,.8-.2.8-.2l.7-.2h.8c0,0,1-.3,1-.3h.9Z"/>
  <path class="st41" d="M54.2,21.8h.7s.2.4.2.4v.6h-.2c0-.1-.2-.4-.2-.4h0c0,0-.1,0-.1,0h-.2c0-.1-.4-.3-.4-.3v.4c0,0,.2.3.2.3v.6c.1,0,.7,1.7.7,1.7v.3c.1,0,.2.4.2.4h-.1c0-.1-.2-.8-.2-.8l-.2-.3-.2-.5-.3-1-.2-1v-.2c0,0,.2,0,.2,0Z"/>
  <path class="st52" d="M59.4,70.1v.2c0,0-.4,1-.4,1l-.3.7-.3.6-.4.9-.5,1.4-.6,1.9-.2.8h-.1v-.5c0,0,.5-1.3.5-1.3l.5-1.5.3-.8.6-1.3.6-1.3.4-.7Z"/>
  <path class="st25" d="M64.7,78.3h.2c0,.1.2.2.2.2h-.4c0,0-1.5.1-1.5.1h-1.1c0,0-1.5.4-1.5.4h-.3.2c0,0,.3-.2.3-.2h0c0,0,.5-.2.5-.2h1c0,0,2.1-.2,2.1-.2h.3c0-.1,0-.2,0-.2Z"/>
  <path class="st0" d="M59,39.4h.3l.2.2v.5c.1,0,.2.2.2.2v.6c0,0,0,.2,0,.2h.1v.3c0,0-.1,0-.1,0v-.3c-.1,0-.1-.1-.1-.1h-.1l-.2-.4v-.7c-.1,0-.2-.2-.2-.2v-.3Z"/>
  <path class="st49" d="M58.9,39.3h.3l.2.2.3.5.3.9v.4h-.1v.2c0,0-.2,0-.2,0v-.3h.1v-.3h-.2v-.5c0,0-.1-.4-.1-.4v-.2c-.1,0-.2-.3-.2-.3h-.1c0-.1-.3-.2-.3-.2v.4c.1,0,.2.2.2.2v.3c0,0-.1,0-.1,0l-.2-.7v-.2Z"/>
  <path class="st7" d="M39.6,83.8h.3c0,0,0,.2,0,.2h-.6c0,0-1,.4-1,.4l-1,.5-.5.3-.6.4-.7.6h-.3c0,.1,0-.1,0-.1l.4-.2.8-.6.6-.4.4-.2,1.1-.5.9-.3h.2Z"/>
  <path class="st33" d="M68.3,75.3h.3s-.1.1-.1.1l-1,.5-.8.3-.4.2-.6.2h-.2c0,.1-.7.3-.7.3h-.5c0,0-.4-.2-.4-.2h0s.4,0,.4,0h.3c0,0,.1,0,.1,0l.5-.2h.2s-.1.2-.1.2h.2c0,0,.2-.1.2-.1h0c0,0,.5-.2.5-.2l1-.4.7-.2.5-.3Z"/>
  <path class="st43" d="M40.1,85h0v.2l-.2.2v.4h0v1c.1,0,.3.6.3.6l.4.7.2.2.2.3v.2c.1,0-.2-.2-.2-.2l-.4-.6-.4-.7v-.2c-.1,0-.3-.8-.3-.8l-.2-.6v-.4c0,0,.4-.3.4-.3h0Z"/>
  <path class="st33" d="M64.2,76.8h.5c0,.1.3,0,.3,0h0c0,0-.1,0-.1,0v.3c0,0,0,.6,0,.6v.4c-.1,0-.3.1-.3.1h-.3c0,0-2.1.2-2.1.2h-1c0,0,0,0,0,0h.7c0,0,1.4-.2,1.4-.2h1.3c0,0,.2-.2.2-.2v-1.1c0,0,0-.1,0-.1h-.4s0-.2,0-.2Z"/>
  <path class="st24" d="M37.5,92h.1v.5c0,0-.3,0-.3,0l-.2.4-.3.3-.2.3-.2.3h-.3s.1-.2.1-.2l.4-.7.3-.6h.2s.1-.3.1-.3l.2-.2Z"/>
  <path class="st0" d="M41.3,76.3h.5c0,0,.7.3.7.3l.6.3v.2c.1,0-.2,0-.2,0h-.2c0,0-.6-.2-.6-.2l-.5-.2h-.3v-.3h0Z"/>
  <path class="st65" d="M56.2,28.3h.1l.2.4.3,1,.3.7.2.7.2.5.2,1v.2c0,0,0,0,0,0l-.2-.6-.2-.8-.2-.7-.3-.9-.3-1-.2-.5Z"/>
  <path class="st64" d="M54.6,18.6h.1s0,.4,0,.4h.1s.2,1,.2,1l.3.8v.6c.1,0,.2.2.2.2v.4c0,0,.2.5.2.5h-.2c0-.1-.2-.7-.2-.7v-.2h-.1v-.4c-.1,0-.2-.7-.2-.7l-.4-1.4v-.5Z"/>
  <path class="st51" d="M47.7,49.8h.1c0,.1.2.3.2.3l.2.6.2.4.2.4h.1v.4c.1,0,.3.4.3.4h.2c0,.1.2,0,.2,0l.2-.3h0v.3l-.2.2h-.3s-.2-.1-.2-.1l-.2-.3-.3-.7-.2-.5-.3-.8v-.2Z"/>
  <path class="st47" d="M64.1,76.8h.2c0,.1.4.2.4.2v.4c0,0,.1.4.1.4v.4l-.3.2h-.5s-.2,0-.2,0h.1s.6,0,.6,0v-.6c.1,0,0-.7,0-.7l-.9.2h-.2c0,0,.7-.4.7-.4h0Z"/>
  <path class="st51" d="M65.1,82.4h0c0,0-.2.6-.2.6l-.4.7-.7.8h0c0,0-.1,0-.1,0h0c0,0-.3.3-.3.3h-.1c0,0-.1,0-.1,0h0c0,0-.8.7-.8.7l-.4.2h-.2s.6-.4.6-.4l.7-.5.7-.6.5-.6.6-1,.2-.3Z"/>
  <path class="st51" d="M48.7,32.6h0v1c-.1,0-.3,1-.3,1l-.2.8v.5h-.2v-.7c0,0,.3-1.2.3-1.2v-.3c.1,0,.3-1.1.3-1.1h0Z"/>
  <path class="st28" d="M71.3,82.8h.4v.2c.1,0-.4.1-.4.1h-.3c0,0-.2,0-.2,0h0c0,.1-.4.1-.4.1h-.4c0,0,.2-.2.2-.2l.8-.2.3-.2Z"/>
  <path class="st1" d="M61.1,74.4h.4s.3.2.3.2l.4.2.2.2.8.6.4.4v.3c0,0-.4-.6-.4-.6l-.6-.4-.4-.2h0c0-.1-.2-.2-.2-.2h0c0,0-.3-.2-.3-.2h-.2v-.2h-.2s-.1,0-.1,0h0Z"/>
  <path class="st70" d="M32.9,86.4h2v.3l-.2.3v.3h-.1v-.5h-.2c0,0-.1,0-.1,0h0c0,0-.3,0-.3,0h-.2s-.2,0-.2,0h-.3c0,0-.6-.1-.6-.1h0Z"/>
  <path class="st55" d="M43.8,84.1h.4s.4.3.4.3h0v.3l-.4.2h-.4l-.6-.2h-1.2c0-.1-1.1-.2-1.1-.2h0s1.3,0,1.3,0h1.3c0,.1.4.2.4.2h.5s0-.2,0-.2l-.3-.2h-.4v-.2Z"/>
  <path class="st37" d="M57.6,53.7h0c0,.1-.1.6-.1.6l-.3.5-.4,1-.3.6h0c0-.1.4-1.1.4-1.1l.3-.7.3-.5.2-.3Z"/>
  <path class="st52" d="M36.7,85h.2s-.7.6-.7.6l-.6.4h-.2s.1-.3.1-.3l.3-.3.6-.3h.3Z"/>
  <path class="st2" d="M60.9,76.7h.5c0,.1.2.2.2.2h0c0,.1-.5.3-.5.3h-.2s-.3,0-.3,0v-.2c-.1,0,0-.2,0-.2h.2Z"/>
  <path class="st25" d="M48.7,87.4l.4.3.7.4.7.3h.6c0,.1.5.1.5.1h.7c0-.1.2,0,.2,0l-.6.2h0s-.7,0-.7,0l-.7-.2-.9-.4-.4-.3-.3-.2h0Z"/>
  <path class="st65" d="M43.8,90.6h.3c0,0,.9.3.9.3h.4c0,0,.3,0,.3,0h.2c0,0,2.3.1,2.3.1h0s-1.3,0-1.3,0h-1.4s-.8-.2-.8-.2l-.8-.2h0Z"/>
  <path class="st27" d="M52.5,87.6h.1s-.5.3-.5.3h-.2s-1,0-1,0l-.6-.2h.2s.5,0,.5,0h.2s.3-.2.3-.2h.4s.3,0,.3,0h0c0,0,.4,0,.4,0Z"/>
  <path class="st47" d="M48.9,87.8l.5.3,1,.4h.6c0,.1-.2.2-.2.2h-.4s-.5-.1-.5-.1l-.5-.3h0c0,0-.2-.1-.2-.1l-.4-.3h0Z"/>
  <path class="st38" d="M36.7,85.1h.1s-.3.3-.3.3l-1.1.8h-.2s0-.2,0-.2l.4-.2.8-.6h.2Z"/>
  <path class="st46" d="M4.9,30.1h.2s.4.7.4.7v.4c0,0-.2-.2-.2-.2h0c0-.1-.2-.1-.2-.1v-.2h-.2v-.2c-.1,0-.1-.2-.1-.2h0Z"/>
  <path class="st51" d="M56.2,28.3h.1l.2.4.3,1,.3.7v.3c0,0,0,0,0,0l-.3-.9-.3-1-.2-.5Z"/>
  <path class="st47" d="M41.5,83.6h.9s.3.2.3.2h.4c0,0-.2.1-.2.1h-.6c0,0-1.7,0-1.7,0h0s.8-.1.8-.1h.2Z"/>
  <path class="st41" d="M21.5,41.2h.1l.3.2.5.4.4.3h.1c0,.1.2.2.2.2l.3.2h-.3s-.3-.2-.3-.2h-.1v-.2h-.3c0,0-.3-.3-.3-.3l-.3-.2-.4-.4h0Z"/>
  <path class="st72" d="M56.5,56.4h0v.4c0,0,0,.5,0,.5v.2c0,0,.2,0,.2,0h.2c0-.1-.1.1-.1.1h-.4c0,0-.1,0-.1,0v-.3l.2-.7h0Z"/>
  <path class="st43" d="M58.3,52.5h0c0,0-.7,1.4-.7,1.4h0c0,0-.1,0-.1,0v-.5c.1,0,.5-.7.5-.7l.3-.3Z"/>
  <path class="st30" d="M66.2,78.5h.3s.2.3.2.3v.4c0,0-.3,0-.3,0v-.3l-.2-.2h-.4c0-.1.2-.2.2-.2h.2s0,0,0,0Z"/>
  <path class="st48" d="M10.7,41.8h.1l.3.7h.1v.5h-.1l-.3-.7h0s0-.6,0-.6Z"/>
  <path class="st55" d="M59.5,78.7h.1s-.2.2-.2.2v.2h.4-.2c0,0-.7.2-.7.2h-.2c0-.1.7-.6.7-.6Z"/>
  <path class="st52" d="M38.7,76.6h.4s-.5.2-.5.2h-.4c0,.1-.4.3-.4.3v.4c0,0,.2,0,.2,0h-.2s-.2,0-.2,0h0v-.5l.3-.2.9-.3Z"/>
  <path class="st41" d="M57.9,43.3h.3s.2.3.2.3h.3s0,.4,0,.4h-.1c0,.1-.2.1-.2.1h-.1v-.5l-.3-.2h0Z"/>
  <path class="st25" d="M65.2,76.4h.1,0c0,.1-.2.2-.2.2v.2c-.1,0-.4,0-.4,0h-.5c0,0-.4-.2-.4-.2h0s.4,0,.4,0h.3c0,0,.1,0,.1,0l.5-.2h0Z"/>
  <path class="st41" d="M40.1,81.7h0v.5c0,0-.3,1.1-.3,1.1v.6c-.1,0-.2,0-.2,0v-1c.1,0,.4-1.2.4-1.2Z"/>
  <path class="st0" d="M54.7,18h.2v.6h0s0,.5,0,.5h-.3c0,0,0-.5,0-.5v-.6h0Z"/>
  <path class="st47" d="M59.4,78.9h.6v.2c.1,0-.4.1-.4.1h-.3s0-.3,0-.3h0Z"/>
  <path class="st41" d="M60,42.1h.2c0,.1.2.5.2.5l.2.2.2.2h-.4l-.2-.2v-.2c-.1,0-.2-.5-.2-.5Z"/>
  <path class="st59" d="M57.1,55h0c0,0-.3.7-.3.7l-.3.7h-.1s.1-.4.1-.4l.4-.9h.2Z"/>
  <path class="st41" d="M17.8,38h.3c0,0,0,.2,0,.2h.2c0,.1.2.2.2.2l.7.7h-.2l-.4-.3h0c0,0-.1,0-.1,0h0c0,0-.2-.2-.2-.2h0c0,0-.3-.1-.3-.1l-.4-.4h0Z"/>
  <path class="st48" d="M65.5,75.8h.3c0,.1,0,.2,0,.2h.1v.2h-.3s-.2-.2-.2-.2v-.2Z"/>
  <path class="st25" d="M39.6,83.8h.3c0,0,0,.2,0,.2h-.6c0,0-.8.3-.8.3h-.2s.4-.2.4-.2l.8-.3h0Z"/>
  <path class="st41" d="M56.4,26.9h.1l.5,1.2v.2-.2c-.1,0-.4-.6-.4-.6l-.2-.5h0Z"/>
  <path class="st20" d="M40.2,87.7h.1l.4.7.2.3v.2c.1,0-.2-.2-.2-.2l-.4-.6-.2-.2h0Z"/>
  <path class="st33" d="M71.3,82.8h.3-.2c0,0-.8.5-.8.5h-.4.2c0,0,.6-.3.6-.3l.3-.2Z"/>
  <path class="st71" d="M65.4,76.2h.6v.2h-.4c0,0-.3.2-.3.2h-.2s.2-.3.2-.3h.1Z"/>
  <path class="st60" d="M58.9,39.3h.3s-.2,0-.2,0v.4c.1,0,.2.2.2.2v.3c0,0-.1,0-.1,0l-.2-.7v-.2Z"/>
  <path class="st52" d="M55.6,22.4h.1s.2.8.2.8v.3h-.1c0,0-.3-1.1-.3-1.1h0Z"/>
  <path class="st59" d="M55,18.1h.1s.4.8.4.8l.2.6h-.2s-.2-.6-.2-.6l-.3-.7h0Z"/>
  <path class="st3" d="M53.5,87.8h.1s-.2.3-.2.3l-.3.2h-.3c0,0,.2,0,.2,0h0c0,0,.3-.2.3-.2h0c0-.1.2-.2.2-.2Z"/>
  <path class="st19" d="M62.5,75.3h.2c0,0,.5.5.5.5l.3.4v.2l-.4-.6-.6-.4h0Z"/>
  <path class="st0" d="M46.4,79.6l.4.2h0v.4l-.3-.2h-.1v-.4Z"/>
  <path class="st41" d="M53.6,59.8h.3c0,0,0,.3,0,.3v.2h-.2l-.2-.4h0Z"/>
  <path class="st46" d="M59.6,40.7h.1c0,.1.1.4.1.4v.3h-.2c0,.1,0-.1,0-.1h.1v-.3h-.2v-.3Z"/>
  <path class="st45" d="M37.7,88.7h.1c0,.1.3.4.3.4v.3h-.1v.2c0,0-.3-.7-.3-.7v-.2Z"/>
  <path class="st21" d="M67.2,75.8h.2s-.7.3-.7.3l-.5.2h-.1c0,0,.7-.4.7-.4h.3Z"/>
  <path class="st41" d="M23.9,47.4h.5c0,.1-.3.2-.3.2h0c0,.1-.3,0-.3,0v-.3Z"/>
  <path class="st5" d="M61.9,43.1h0v1h-.1v-.5c0,0-.3-.2-.3-.2h0c0,0,.2,0,.2,0h.2s0-.2,0-.2Z"/>
  <path class="st29" d="M36.7,85.1h.1s-.3.3-.3.3l-.5.3h0c0-.1.5-.5.5-.5h.2Z"/>
  <path class="st54" d="M54.6,18.6h.1s0,.4,0,.4h.1v.8h0l-.2-.9v-.2Z"/>
  <path class="st41" d="M53.1,59.5h.2c0,.1.1.2.1.2h-.1v.3c0,0-.2,0-.2,0v-.2c-.1,0,0-.2,0-.2Z"/>
  <path class="st35" d="M54.9,85.1l.3.2v.2c.1,0,0,0,0,0h-.3s0,0,0,0v-.5Z"/>
  <path class="st62" d="M47.7,49.8h.1c0,.1.2.3.2.3l.2.4v.3c0,0-.2-.2-.2-.2l-.3-.6v-.2Z"/>
  <path class="st21" d="M52.1,88.5h.1s-.2,0-.2,0h0c0,0-.4.2-.4.2h-.5s.2-.1.2-.1h.5s.3-.1.3-.1Z"/>
  <path class="st22" d="M43.8,84.1h.4s.4.3.4.3h0v.3h-.2c0,0-.3,0-.3,0h.2c0,0,0-.3,0-.3l-.3-.2h-.4v-.2Z"/>
  <path class="st37" d="M65.1,82.4h0c0,0-.2.6-.2.6l-.2.4h-.1c0-.1.5-.9.5-.9Z"/>
  <path class="st41" d="M8.6,36h.2c0,.1.5,1.1.5,1.1h0c0,.1-.5-.7-.5-.7v-.3Z"/>
  <path class="st63" d="M53.8,87.5h.1s-.5.4-.5.4l-.3.2h-.1c0,0-.2.1-.2.1h0c0,0,.3-.3.3-.3l.6-.4h.2Z"/>
  <path class="st44" d="M39.5,84.7h.2s-.1,0-.1,0h0c0,.1-.5.3-.5.3h-.3s.3-.2.3-.2h.5Z"/>
  <path class="st41" d="M10.7,42h.1c0,0,.2.6.2.6l.2.3h0c0,.1-.1.1-.1.1l-.3-.7h0v-.3Z"/>
  <path class="st32" d="M52.9,88.1h.1s-.2,0-.2,0h0c0,0-.2,0-.2,0h0c0,0-.4.2-.4.2h-.2s.1-.2.1-.2l.6-.2Z"/>
  <path class="st15" d="M36.5,86.2h.2s-.4.4-.4.4h-.2c0,0-.3.3-.3.3v-.2c.1,0,.5-.3.5-.3l.3-.2Z"/>
  <path class="st62" d="M49.2,52h0v.3l-.2.2h-.3s-.1,0-.1,0v-.2h.3c0,.1.2,0,.2,0l.2-.3Z"/>
  <path class="st52" d="M9.9,38.8h.1l.4.8h0c0,0-.3-.3-.3-.3l-.2-.4h0Z"/>
  <path class="st26" d="M37.3,84.7h.1s-.2.2-.2.2l-.4.3h-.2c0,0,.3-.3.3-.3l.4-.2Z"/>
  <path class="st10" d="M68.3,75.3h.3s-.1.1-.1.1l-.6.3h-.1s.5-.4.5-.4Z"/>
  <path class="st52" d="M57,72.5h0c0,.1-.3.8-.3.8h-.2c0,.1,0,0,0,0l.3-.5v-.2Z"/>
  <path class="st41" d="M23.9,43.1h.3c0,0,.6.6.6.6h-.2s0,0,0,0h-.2s-.5-.4-.5-.4h0Z"/>
  <path class="st41" d="M58.2,44.7l.2.2.2.4h-.2c0,0,0,0,0,0v-.3h-.1v-.3Z"/>
  <path class="st41" d="M48.9,31.4h.2c0,.1,0,.5,0,.5l-.2.6h0v-.3h.1c0-.1,0-.4,0-.4v-.4Z"/>
  <path class="st69" d="M45.9,79.3h.2s.2.2.2.2v.2c0,0-.3-.2-.3-.2h-.1v-.2Z"/>
  <path class="st41" d="M58.4,44.1h.1c0,.1,0,.3,0,.3h-.1v.2c0,0-.1,0-.1,0h-.1v-.2c0,0,.1,0,.1,0h.2,0c0-.1,0-.2,0-.2Z"/>
  <path class="st31" d="M36.2,86.5h0c0,.1-.3.6-.3.6h-.2v-.2l.4-.3h0Z"/>
  <path class="st41" d="M12.8,34.9h.3s.5.2.5.2h.2v.2h-.5c0-.1-.5-.3-.5-.3h0Z"/>
  <path class="st47" d="M37.9,91h.1c0,0,0,.5,0,.5l.2.2h0c0,.1-.1,0-.1,0l-.2-.3v-.4Z"/>
  <path class="st21" d="M36.4,87.4h.3l.3.2v.2c.1,0-.1-.1-.1-.1h0c0,0-.2-.2-.2-.2h-.2Z"/>
  <path class="st41" d="M45.8,81.6h.2c0,.1.2.2.2.2v.2c.1,0-.2,0-.2,0h-.2c0-.1,0-.3,0-.3Z"/>
  <path class="st25" d="M59,79.1h.1s0,.2,0,.2h.4s-.7,0-.7,0h0c0-.1.2-.3.2-.3Z"/>
  <path class="st41" d="M4.5,29.6h.3c0,.1-.3.1-.3.1v.4h-.1c0,0,0-.4,0-.4h.2Z"/>
  <path class="st6" d="M35.6,86h.1s-.4.3-.4.3h0v-.3h.4Z"/>
  <path class="st41" d="M39.8,85.3h.1s-.2.3-.2.3v.5h-.1v-.5c0,0,0-.2,0-.2h.1Z"/>
  <path class="st69" d="M45.3,78.6h.2c0,0,.2.2.2.2h0c0,.1-.2.1-.2.1l-.3-.3h0Z"/>
  <path class="st61" d="M67.8,74.4l.2.2v.2c0,0-.3-.2-.3-.2h0c0,0-.1-.1-.1-.1h.2Z"/>
  <path class="st21" d="M55.8,24.2h.2s0,.2,0,.2v.2h-.2v-.3c0,0,0,0,0,0Z"/>
  <path class="st17" d="M34.8,86.5h.2s-.1.3-.1.3v.2c-.1,0-.2.3-.2.3h0v-.4l.2-.3h0Z"/>
  <path class="st56" d="M58.3,78.7h.1v.2c0,0-.4.2-.4.2h-.1v-.2c.1,0,.4-.2.4-.2Z"/>
  <path class="st23" d="M59.4,50h.1c0,.1,0,.4,0,.4h-.2c0,0-.1.2-.1.2v-.3c0,0,.2-.3.2-.3Z"/>
  <path class="st41" d="M26.2,47h.2c0,0,.3.3.3.3l.2.2h-.2c0-.1-.3-.2-.3-.2l-.2-.2Z"/>
</svg>